<svg width="1148" height="20" viewBox="0 0 1148 20" fill="none" xmlns="http://www.w3.org/2000/svg">
<rect opacity="0.2" x="332.422" y="0.34668" width="482.878" height="19.0521" fill="#F8F5F0"/>
<path d="M316.755 6.18227L311.402 4.2471C311.239 4.18841 311.064 4.1582 310.888 4.1582C310.711 4.1582 310.537 4.18841 310.373 4.2471L305.021 6.18227C304.522 6.36127 304.195 6.78459 304.195 7.25387C304.195 12.0555 307.388 15.3743 310.371 16.4532C310.7 16.5717 311.07 16.5717 311.399 16.4532C313.789 15.5896 317.578 12.607 317.578 7.25387C317.578 6.78459 317.251 6.36127 316.755 6.18227ZM310.889 14.9534L310.886 5.73718L315.791 7.51028C315.699 11.1726 313.502 13.8262 310.889 14.9534Z" fill="#00412D"/>
<path d="M532.143 9.2497H531.614V8.15628C531.614 6.83642 530.891 6.06055 529.447 6.06055C528.003 6.06055 527.28 6.83642 527.28 8.15628V9.2497H526.643C526.344 9.2497 526.102 9.54402 526.102 9.79596V13.7228C526.102 13.9729 526.333 14.2417 526.617 14.3183L527.265 14.4946C527.609 14.5789 527.964 14.6258 528.322 14.634H530.572C530.93 14.6258 531.285 14.5788 531.629 14.4941L532.277 14.3178C532.56 14.2417 532.793 13.9729 532.793 13.7228V9.79596C532.793 9.54402 532.442 9.2497 532.143 9.2497ZM530.53 9.2497H528.364V7.97359C528.364 7.31525 528.796 6.97173 529.447 6.97173C530.099 6.97173 530.53 7.31525 530.53 7.97359V9.2497Z" fill="#00412D"/>
<path d="M549.374 11.6416V5.01709H552.184C552.892 5.01709 553.434 5.18936 553.81 5.5339C554.192 5.87217 554.383 6.34199 554.383 6.94337C554.383 7.54474 554.192 8.0177 553.81 8.36223C553.434 8.70677 552.892 8.87904 552.184 8.87904H550.352V11.6416H549.374ZM550.352 8.09913H552.081C552.525 8.09913 552.861 7.9989 553.086 7.79845C553.312 7.59799 553.424 7.31296 553.424 6.94337C553.424 6.58004 553.312 6.29814 553.086 6.09769C552.861 5.89723 552.525 5.797 552.081 5.797H550.352V8.09913ZM555.364 11.6416V8.08034C555.364 7.88615 555.358 7.69195 555.345 7.49776C555.339 7.2973 555.327 7.09998 555.308 6.90578H556.229L556.332 8.12732H556.182C556.244 7.8329 556.351 7.58859 556.501 7.3944C556.651 7.2002 556.833 7.05612 557.046 6.96216C557.265 6.8682 557.494 6.82121 557.732 6.82121C557.832 6.82121 557.917 6.82748 557.986 6.84001C558.055 6.84627 558.124 6.8588 558.192 6.87759L558.183 7.72327C558.077 7.67942 557.983 7.65437 557.901 7.6481C557.826 7.63557 557.732 7.62931 557.619 7.62931C557.344 7.62931 557.109 7.69195 556.915 7.81724C556.72 7.93626 556.573 8.09913 556.473 8.30586C556.373 8.51258 556.323 8.73496 556.323 8.973V11.6416H555.364ZM561.05 11.7262C560.286 11.7262 559.684 11.5101 559.246 11.0778C558.807 10.6456 558.588 10.0473 558.588 9.28309C558.588 8.78821 558.682 8.35597 558.87 7.98638C559.064 7.61678 559.331 7.33175 559.669 7.1313C560.013 6.92457 560.411 6.82121 560.862 6.82121C561.307 6.82121 561.68 6.91518 561.98 7.10311C562.281 7.29104 562.51 7.55727 562.666 7.90181C562.823 8.24008 562.901 8.641 562.901 9.10456V9.40524H559.331V8.86025H562.253L562.093 8.9824C562.093 8.51258 561.987 8.14925 561.774 7.89241C561.567 7.62931 561.266 7.49776 560.872 7.49776C560.433 7.49776 560.095 7.65123 559.857 7.95819C559.619 8.25887 559.5 8.67545 559.5 9.20792V9.30188C559.5 9.8594 559.634 10.2791 559.904 10.561C560.179 10.8429 560.568 10.9838 561.069 10.9838C561.345 10.9838 561.601 10.9463 561.839 10.8711C562.084 10.7897 562.316 10.6581 562.535 10.4764L562.845 11.1248C562.626 11.319 562.359 11.4693 562.046 11.5758C561.733 11.6761 561.401 11.7262 561.05 11.7262ZM565.616 11.7262C565.221 11.7262 564.858 11.6761 564.526 11.5758C564.194 11.4756 563.918 11.3347 563.699 11.153L563.99 10.5046C564.222 10.68 564.479 10.8116 564.761 10.8993C565.043 10.987 565.331 11.0308 565.625 11.0308C565.97 11.0308 566.23 10.9713 566.405 10.8523C566.581 10.727 566.668 10.5579 566.668 10.3449C566.668 10.182 566.612 10.0505 566.499 9.95024C566.393 9.85001 566.214 9.77484 565.964 9.72472L565.061 9.54619C564.661 9.45849 564.357 9.30815 564.15 9.09516C563.943 8.88217 563.84 8.60967 563.84 8.27767C563.84 7.99577 563.915 7.7452 564.065 7.52595C564.222 7.3067 564.441 7.13443 564.723 7.00914C565.011 6.88386 565.346 6.82121 565.729 6.82121C566.079 6.82121 566.405 6.87133 566.706 6.97156C567.007 7.07179 567.257 7.21586 567.458 7.40379L567.157 8.03336C566.963 7.87049 566.743 7.7452 566.499 7.6575C566.255 7.56353 566.007 7.51655 565.757 7.51655C565.406 7.51655 565.146 7.58233 564.977 7.71388C564.808 7.84543 564.723 8.0177 564.723 8.23068C564.723 8.39356 564.773 8.52824 564.874 8.63473C564.98 8.73496 565.146 8.81326 565.372 8.86964L566.274 9.04818C566.7 9.13588 567.019 9.27996 567.232 9.48041C567.445 9.68087 567.552 9.95024 567.552 10.2885C567.552 10.5829 567.47 10.8398 567.307 11.059C567.144 11.2783 566.919 11.4443 566.631 11.557C566.342 11.6698 566.004 11.7262 565.616 11.7262ZM570.86 11.7262C570.095 11.7262 569.494 11.5101 569.055 11.0778C568.617 10.6456 568.398 10.0473 568.398 9.28309C568.398 8.78821 568.492 8.35597 568.68 7.98638C568.874 7.61678 569.14 7.33175 569.478 7.1313C569.823 6.92457 570.221 6.82121 570.672 6.82121C571.116 6.82121 571.489 6.91518 571.79 7.10311C572.09 7.29104 572.319 7.55727 572.476 7.90181C572.632 8.24008 572.711 8.641 572.711 9.10456V9.40524H569.14V8.86025H572.062L571.903 8.9824C571.903 8.51258 571.796 8.14925 571.583 7.89241C571.376 7.62931 571.076 7.49776 570.681 7.49776C570.242 7.49776 569.904 7.65123 569.666 7.95819C569.428 8.25887 569.309 8.67545 569.309 9.20792V9.30188C569.309 9.8594 569.444 10.2791 569.713 10.561C569.989 10.8429 570.377 10.9838 570.878 10.9838C571.154 10.9838 571.411 10.9463 571.649 10.8711C571.893 10.7897 572.125 10.6581 572.344 10.4764L572.654 11.1248C572.435 11.319 572.169 11.4693 571.856 11.5758C571.542 11.6761 571.21 11.7262 570.86 11.7262ZM573.8 11.6416V8.04275C573.8 7.86109 573.79 7.67629 573.771 7.48836C573.759 7.29417 573.743 7.09998 573.724 6.90578H574.645L574.73 7.90181H574.617C574.761 7.55101 574.984 7.28477 575.284 7.10311C575.585 6.91518 575.933 6.82121 576.327 6.82121C576.885 6.82121 577.305 6.97469 577.586 7.28164C577.875 7.58859 578.019 8.06468 578.019 8.7099V11.6416H577.07V8.76628C577.07 8.34657 576.985 8.04589 576.816 7.86422C576.653 7.67629 576.402 7.58233 576.064 7.58233C575.663 7.58233 575.344 7.70761 575.106 7.95819C574.868 8.20249 574.749 8.5345 574.749 8.95421V11.6416H573.8ZM581.211 11.7262C580.698 11.7262 580.309 11.5884 580.046 11.3127C579.783 11.0308 579.652 10.6111 579.652 10.0536V7.63871H578.731V6.90578H579.652V5.65605L580.601 5.40235V6.90578H581.916V7.63871H580.601V9.96903C580.601 10.3198 580.663 10.5704 580.788 10.7207C580.914 10.8711 581.095 10.9463 581.333 10.9463C581.453 10.9463 581.556 10.9369 581.644 10.9181C581.738 10.893 581.822 10.8648 581.897 10.8335V11.604C581.803 11.6416 581.694 11.6698 581.568 11.6886C581.443 11.7136 581.324 11.7262 581.211 11.7262ZM584.597 11.7262C584.177 11.7262 583.811 11.6291 583.497 11.4349C583.184 11.2407 582.94 10.9588 582.764 10.5892C582.595 10.2196 582.511 9.7811 582.511 9.27369C582.511 8.76002 582.595 8.32152 582.764 7.95819C582.94 7.59486 583.184 7.31609 583.497 7.1219C583.811 6.92144 584.177 6.82121 584.597 6.82121C585.01 6.82121 585.37 6.92457 585.677 7.1313C585.984 7.33802 586.188 7.61991 586.288 7.97698H586.185L586.279 6.90578H587.2C587.181 7.09998 587.162 7.29417 587.143 7.48836C587.131 7.67629 587.124 7.86109 587.124 8.04275V11.6416H586.175V10.5892H586.279C586.178 10.94 585.972 11.2188 585.659 11.4255C585.352 11.6259 584.998 11.7262 584.597 11.7262ZM584.832 10.9838C585.239 10.9838 585.565 10.8398 585.809 10.5516C586.059 10.2635 586.185 9.83748 586.185 9.27369C586.185 8.7099 586.059 8.28706 585.809 8.00517C585.565 7.71701 585.239 7.57293 584.832 7.57293C584.418 7.57293 584.086 7.71701 583.836 8.00517C583.591 8.28706 583.469 8.7099 583.469 9.27369C583.469 9.83748 583.591 10.2635 583.836 10.5516C584.08 10.8398 584.412 10.9838 584.832 10.9838ZM590.351 11.7262C589.837 11.7262 589.449 11.5884 589.186 11.3127C588.923 11.0308 588.791 10.6111 588.791 10.0536V7.63871H587.87V6.90578H588.791V5.65605L589.74 5.40235V6.90578H591.056V7.63871H589.74V9.96903C589.74 10.3198 589.803 10.5704 589.928 10.7207C590.053 10.8711 590.235 10.9463 590.473 10.9463C590.592 10.9463 590.695 10.9369 590.783 10.9181C590.877 10.893 590.962 10.8648 591.037 10.8335V11.604C590.943 11.6416 590.833 11.6698 590.708 11.6886C590.583 11.7136 590.464 11.7262 590.351 11.7262ZM591.923 11.6416V6.90578H592.872V11.6416H591.923ZM591.848 5.91915V4.93252H592.947V5.91915H591.848ZM596.292 11.7262C595.822 11.7262 595.415 11.6291 595.071 11.4349C594.726 11.2344 594.46 10.9525 594.272 10.5892C594.084 10.2196 593.99 9.7811 593.99 9.27369C593.99 8.76628 594.084 8.33091 594.272 7.96758C594.46 7.59799 594.726 7.31609 595.071 7.1219C595.415 6.92144 595.822 6.82121 596.292 6.82121C596.762 6.82121 597.169 6.92144 597.514 7.1219C597.865 7.31609 598.134 7.59799 598.322 7.96758C598.516 8.33091 598.613 8.76628 598.613 9.27369C598.613 9.7811 598.516 10.2196 598.322 10.5892C598.134 10.9525 597.865 11.2344 597.514 11.4349C597.169 11.6291 596.762 11.7262 596.292 11.7262ZM596.292 10.9838C596.706 10.9838 597.035 10.8398 597.279 10.5516C597.523 10.2635 597.645 9.83748 597.645 9.27369C597.645 8.7099 597.523 8.28706 597.279 8.00517C597.035 7.71701 596.706 7.57293 596.292 7.57293C595.885 7.57293 595.559 7.71701 595.315 8.00517C595.071 8.28706 594.949 8.7099 594.949 9.27369C594.949 9.83748 595.068 10.2635 595.306 10.5516C595.55 10.8398 595.879 10.9838 596.292 10.9838ZM599.723 11.6416V8.04275C599.723 7.86109 599.713 7.67629 599.694 7.48836C599.682 7.29417 599.666 7.09998 599.647 6.90578H600.568L600.653 7.90181H600.54C600.684 7.55101 600.906 7.28477 601.207 7.10311C601.508 6.91518 601.856 6.82121 602.25 6.82121C602.808 6.82121 603.227 6.97469 603.509 7.28164C603.797 7.58859 603.942 8.06468 603.942 8.7099V11.6416H602.992V8.76628C602.992 8.34657 602.908 8.04589 602.739 7.86422C602.576 7.67629 602.325 7.58233 601.987 7.58233C601.586 7.58233 601.267 7.70761 601.029 7.95819C600.791 8.20249 600.672 8.5345 600.672 8.95421V11.6416H599.723ZM605.152 11.6416V10.5234H606.27V11.6416H605.152ZM607.522 13.6712V8.04275C607.522 7.86109 607.513 7.67629 607.494 7.48836C607.482 7.29417 607.466 7.09998 607.447 6.90578H608.368L608.462 7.97698H608.359C608.459 7.61991 608.659 7.33802 608.96 7.1313C609.267 6.92457 609.63 6.82121 610.05 6.82121C610.47 6.82121 610.836 6.92144 611.149 7.1219C611.463 7.31609 611.704 7.59486 611.873 7.95819C612.048 8.32152 612.136 8.76002 612.136 9.27369C612.136 9.7811 612.048 10.2196 611.873 10.5892C611.704 10.9588 611.463 11.2407 611.149 11.4349C610.836 11.6291 610.47 11.7262 610.05 11.7262C609.637 11.7262 609.276 11.6259 608.969 11.4255C608.669 11.2188 608.468 10.94 608.368 10.5892H608.471V13.6712H607.522ZM609.815 10.9838C610.229 10.9838 610.557 10.8398 610.802 10.5516C611.052 10.2635 611.178 9.83748 611.178 9.27369C611.178 8.7099 611.052 8.28706 610.802 8.00517C610.557 7.71701 610.229 7.57293 609.815 7.57293C609.402 7.57293 609.07 7.71701 608.819 8.00517C608.575 8.28706 608.453 8.7099 608.453 9.27369C608.453 9.83748 608.575 10.2635 608.819 10.5516C609.07 10.8398 609.402 10.9838 609.815 10.9838ZM615.062 11.7262C614.648 11.7262 614.282 11.6291 613.962 11.4349C613.649 11.2407 613.405 10.9588 613.23 10.5892C613.06 10.2196 612.976 9.7811 612.976 9.27369C612.976 8.76002 613.06 8.32152 613.23 7.95819C613.405 7.59486 613.649 7.31609 613.962 7.1219C614.282 6.92144 614.648 6.82121 615.062 6.82121C615.469 6.82121 615.826 6.92457 616.133 7.1313C616.446 7.33175 616.653 7.60738 616.753 7.95819H616.64V4.7258H617.589V11.6416H616.65V10.5704H616.763C616.656 10.9275 616.449 11.2094 616.142 11.4161C615.835 11.6228 615.475 11.7262 615.062 11.7262ZM615.297 10.9838C615.704 10.9838 616.033 10.8398 616.283 10.5516C616.534 10.2635 616.659 9.83748 616.659 9.27369C616.659 8.7099 616.534 8.28706 616.283 8.00517C616.033 7.71701 615.704 7.57293 615.297 7.57293C614.883 7.57293 614.551 7.71701 614.301 8.00517C614.056 8.28706 613.934 8.7099 613.934 9.27369C613.934 9.83748 614.056 10.2635 614.301 10.5516C614.551 10.8398 614.883 10.9838 615.297 10.9838ZM619.256 11.6416V7.63871H618.335V6.90578H619.519L619.256 7.15009V6.39837C619.256 5.84085 619.397 5.41801 619.679 5.12985C619.961 4.83543 620.374 4.68822 620.919 4.68822C621.051 4.68822 621.189 4.69761 621.333 4.7164C621.477 4.7352 621.596 4.76652 621.69 4.81037V5.58088C621.615 5.54956 621.521 5.5245 621.408 5.50571C621.301 5.48065 621.192 5.46812 621.079 5.46812C620.897 5.46812 620.741 5.50571 620.609 5.58088C620.478 5.64979 620.374 5.75628 620.299 5.90036C620.23 6.04444 620.196 6.22924 620.196 6.45475V7.09371L620.055 6.90578H621.483V7.63871H620.205V11.6416H619.256Z" fill="#00412D"/>
<ellipse cx="5.32014" cy="9.87097" rx="4.46076" ry="3.81042" fill="#00412D"/>
<ellipse opacity="0.6" cx="19.8201" cy="9.87097" rx="4.46076" ry="3.81042" fill="#00412D"/>
<ellipse opacity="0.3" cx="34.3201" cy="9.87097" rx="4.46076" ry="3.81042" fill="#00412D"/>
<path d="M67.7812 7.01367H68.8964" stroke="#00412D" stroke-width="1.04405" stroke-linecap="square" stroke-linejoin="round"/>
<path d="M67.7812 8.91895H68.8964" stroke="#00412D" stroke-width="1.04405" stroke-linecap="square" stroke-linejoin="round"/>
<rect x="65.017" y="4.5893" width="16.6567" height="11.5227" stroke="#00412D" stroke-width="1.04405"/>
<path d="M71.1328 4.63477V16.066" stroke="#00412D" stroke-width="1.04405" stroke-linecap="square" stroke-linejoin="round"/>
<path d="M805.213 5.96664C804.489 5.96387 803.773 6.10011 803.118 6.36531C802.464 6.63052 801.888 7.0179 801.432 7.49887C800.012 8.98333 799.995 11.188 801.398 12.6871C803.247 14.6713 806.62 14.7962 808.654 13.0583C809.304 12.5034 809.756 11.8025 809.958 11.0369C810.159 10.2714 810.103 9.47261 809.794 8.73347C809.644 8.36971 809.106 8.26315 808.788 8.53506C808.628 8.67101 808.564 8.8731 808.637 9.05315C808.925 9.72542 808.932 10.4618 808.659 11.1383C808.385 11.8149 807.848 12.3904 807.136 12.768C805.97 13.4036 804.422 13.3963 803.264 12.7533C802.802 12.5034 802.411 12.1678 802.121 11.7714C801.831 11.3751 801.648 10.928 801.588 10.4634C801.527 9.99878 801.589 9.52843 801.77 9.08715C801.951 8.64588 802.245 8.24497 802.632 7.91408C803.346 7.30413 804.28 7.01385 805.213 7.01753L805.213 8.1272C805.213 8.59017 805.867 8.82533 806.25 8.49831L807.794 7.1792C808.031 6.97711 808.031 6.64641 807.794 6.44432L806.25 5.1252C805.867 4.79818 805.209 5.02967 805.209 5.49264L805.213 5.96664Z" fill="#00412D"/>
<path fill-rule="evenodd" clip-rule="evenodd" d="M1131.8 5.9777C1131.8 5.29594 1132.43 4.72395 1133.29 4.72272C1134.16 4.72141 1134.72 4.72395 1134.72 4.72395C1134.72 4.72395 1134.68 3.99535 1134.68 3.41592C1134.68 2.83632 1135.28 2.2563 1136.14 2.2563C1137.01 2.2563 1145.04 2.23502 1145.85 2.2866C1146.66 2.33817 1147.31 2.77557 1147.31 3.47912C1147.31 4.18266 1147.31 11.1586 1147.31 11.8047C1147.31 12.4508 1146.63 13.0379 1145.79 13.046C1144.95 13.0542 1144.38 13.0378 1144.38 13.0378C1144.38 13.0378 1144.41 13.854 1144.41 14.3553C1144.41 14.8566 1143.72 15.5846 1142.92 15.5846C1142.12 15.5846 1134 15.629 1133.22 15.629C1132.45 15.629 1131.73 15.0464 1131.77 14.3202C1131.8 13.594 1131.8 6.65931 1131.8 5.9777H1131.8ZM1136.21 3.64563L1136.21 11.6818C1136.21 11.7715 1136.29 11.8447 1136.4 11.8442L1145.56 11.8024C1145.61 11.8023 1145.66 11.7848 1145.69 11.754C1145.73 11.7231 1145.75 11.6814 1145.75 11.6379L1145.74 3.67387C1145.74 3.63027 1145.72 3.58848 1145.69 3.55768C1145.65 3.52687 1145.6 3.50957 1145.55 3.50957L1136.41 3.48288C1136.38 3.48267 1136.36 3.48671 1136.33 3.49479C1136.31 3.50287 1136.29 3.51482 1136.27 3.52996C1136.25 3.54509 1136.24 3.5631 1136.23 3.58295C1136.22 3.60281 1136.21 3.62411 1136.21 3.64563ZM1133.28 6.31089L1133.37 14.19C1133.37 14.2334 1133.39 14.2749 1133.43 14.3053C1133.46 14.3357 1133.51 14.3526 1133.56 14.3523L1142.58 14.2937C1142.63 14.2935 1142.68 14.2848 1142.73 14.268C1142.78 14.2513 1142.82 14.2269 1142.85 14.1963C1142.89 14.1657 1142.92 14.1294 1142.93 14.0895C1142.95 14.0497 1142.96 14.0071 1142.96 13.9642L1142.95 13.0524C1142.95 13.0524 1136.92 13.0998 1136.14 13.0998C1135.36 13.0998 1134.66 12.4661 1134.66 11.7531C1134.66 11.04 1134.72 6.12899 1134.72 6.12899C1134.72 6.03894 1134.63 5.96608 1134.53 5.96731L1133.66 5.97795C1133.56 5.97914 1133.46 6.01485 1133.39 6.07726C1133.32 6.13967 1133.28 6.22368 1133.28 6.31089Z" fill="#00412D"/>
<path d="M1105.74 8.20626V3.20508H1104.07V8.20626H1098.21V9.63517H1104.07V14.6363H1105.74V9.63517H1111.59V8.20626H1105.74Z" fill="#00412D"/>
<path d="M1071.45 2.25195L1068.47 4.79223H1070.7V10.5079H1072.19V4.79223H1074.42L1071.45 2.25195ZM1075.91 16.2235H1066.99C1066.59 16.2235 1066.21 16.0897 1065.94 15.8515C1065.66 15.6133 1065.5 15.2902 1065.5 14.9534V7.33252C1065.5 6.99565 1065.66 6.67259 1065.94 6.43439C1066.21 6.19619 1066.59 6.06237 1066.99 6.06237H1069.22V7.33252H1066.99V14.9534H1075.91V7.33252H1073.68V6.06237H1075.91C1076.3 6.06237 1076.68 6.19619 1076.96 6.43439C1077.24 6.67259 1077.4 6.99565 1077.4 7.33252V14.9534C1077.4 15.2902 1077.24 15.6133 1076.96 15.8515C1076.68 16.0897 1076.3 16.2235 1075.91 16.2235Z" fill="#00412D"/>
<path d="M106.053 4.95312L100.477 9.71615L105.495 14.0029" stroke="#00412D" stroke-width="1.56608" stroke-linecap="round" stroke-linejoin="round"/>
<path opacity="0.5" d="M126.682 14.0049L132.258 9.24185L127.239 4.95513" stroke="#00412D" stroke-width="1.56608" stroke-linecap="round" stroke-linejoin="round"/>
</svg>
