<svg width="121" height="33" viewBox="0 0 121 33" fill="none" xmlns="http://www.w3.org/2000/svg">
<path d="M120.616 8.46347C120.616 9.21237 120.351 9.85346 119.825 10.3809C119.299 10.9083 118.66 11.1735 117.913 11.1735C117.167 11.1735 116.527 10.9083 116.001 10.3809C115.475 9.85346 115.211 9.21529 115.211 8.46347C115.211 7.71165 115.475 7.07639 116.001 6.54603C116.527 6.01568 117.164 5.75342 117.913 5.75342C118.663 5.75342 119.308 6.01568 119.831 6.54021C120.354 7.06473 120.616 7.70582 120.616 8.46347ZM120.183 8.46347C120.183 7.82529 119.962 7.2862 119.52 6.84618C119.079 6.40616 118.544 6.18761 117.913 6.18761C117.283 6.18761 116.751 6.40616 116.315 6.84618C115.876 7.2862 115.658 7.82238 115.658 8.46347C115.658 9.10455 115.879 9.61742 116.321 10.0604C116.763 10.5033 117.294 10.7248 117.913 10.7248C118.532 10.7248 119.076 10.5033 119.52 10.0604C119.962 9.61742 120.183 9.08415 120.183 8.46347ZM119.215 10.0225H118.643L117.841 8.79567H117.344V10.0225H116.873V6.91612H118.134C118.404 6.91612 118.648 7.00645 118.861 7.18421C119.073 7.36196 119.18 7.58926 119.18 7.86026C119.18 8.15749 119.084 8.3877 118.893 8.54506C118.701 8.70242 118.532 8.7811 118.39 8.7811L119.218 10.0196L119.215 10.0225ZM118.692 7.86318C118.692 7.69999 118.634 7.56594 118.521 7.46104C118.404 7.35322 118.277 7.30077 118.131 7.30077H117.341V8.3877H118.131C118.277 8.3877 118.404 8.33816 118.521 8.242C118.634 8.14292 118.692 8.01762 118.692 7.86609V7.86318Z" fill="#00412D"/>
<path d="M83.9861 6.64125C83.5909 6.92973 83.094 6.92391 82.8673 6.62668H82.8644L82.2542 5.79035C82.0247 5.49312 82.1467 5.0123 82.5303 4.70342L87.688 1.1075C88.153 0.734505 88.7632 0.722849 89.0392 1.08419L89.5041 1.69031C89.7831 2.05165 89.6146 2.64028 89.1322 2.99288L83.9861 6.64125Z" fill="#00412D"/>
<path d="M19.9598 10.9359C20.2184 10.493 20.4857 10.1841 20.7589 10.0122H20.7618C21.0349 9.84026 21.4185 9.75284 21.9154 9.75284H23.6733V32.8145H21.0756V14.4328C21.0756 14.2521 21.1163 14.0132 21.2034 13.7218H21.1715L13.0876 28.8514C12.9452 29.1195 12.7738 29.3235 12.5704 29.4575C12.3641 29.5916 12.1171 29.6586 11.8265 29.6586C11.2802 29.6586 10.8647 29.3876 10.5857 28.8485L2.50187 13.7188H2.46991C2.55418 14.0102 2.59776 14.2463 2.59776 14.4299V32.8145H0V9.75284H1.75799C2.25198 9.75284 2.63844 9.84026 2.91159 10.0122C3.18764 10.187 3.45206 10.493 3.71068 10.9359L11.6173 25.4187C11.7132 25.6023 11.7829 25.8762 11.8265 26.2433H11.8439C11.8875 25.8762 11.9573 25.6023 12.0532 25.4187L19.9598 10.9359Z" fill="#00412D"/>
<path d="M90.0999 32.8145H77.6661V9.75284H91.7039V10.7494C91.7039 11.6382 90.9861 12.358 90.0999 12.358H80.2638V19.7217H89.542V20.7183C89.542 21.6071 88.8242 22.3269 87.938 22.3269H80.2638V30.2093H91.7039V31.2059C91.7039 32.0947 90.9861 32.8145 90.0999 32.8145Z" fill="#00412D"/>
<path d="M110.605 12.358C111.492 12.358 112.209 11.6382 112.209 10.7494V9.75284H98.1715V32.8145H110.605C111.492 32.8145 112.209 32.0947 112.209 31.2059V30.2093H100.769V22.3269H108.443C109.33 22.3269 110.047 21.6071 110.047 20.7183V19.7217H100.769V12.358H110.605Z" fill="#00412D"/>
<path fill-rule="evenodd" clip-rule="evenodd" d="M40.6898 9.75264L50.7293 32.8201H49.0991C48.303 32.8201 47.7422 32.4646 47.4196 31.7507L45.5628 27.4758H33.4719L31.6151 31.7507C31.3129 32.4617 30.7608 32.8201 29.953 32.8201H28.3054L38.3652 9.75264H40.6898ZM34.6371 24.8386H44.4179L40.0767 14.8522C39.7745 14.1616 39.6147 13.5904 39.5915 13.1358H39.4462C39.4258 13.5904 39.2689 14.1616 38.9783 14.8522L34.6371 24.8386Z" fill="#00412D"/>
<path fill-rule="evenodd" clip-rule="evenodd" d="M63.9953 22.6327C64.3266 22.688 64.591 22.7667 64.7857 22.8687H64.7915C64.9862 22.9736 65.1634 23.1193 65.3232 23.3145L72.6167 32.8143H70.728C69.8882 32.8143 69.2489 32.5229 68.8073 31.9401L61.8683 23.0086H57.9629V32.8143H55.3652V9.75264H63.3357C64.5823 9.75264 65.7271 10.044 66.7645 10.6268C67.8019 11.2097 68.6184 12.0023 69.217 13.0047C69.8127 14.0071 70.112 15.1232 70.112 16.3529C70.112 17.5185 69.833 18.5763 69.2722 19.5263C68.7114 20.4763 67.9995 21.2223 67.1335 21.7672C66.2676 22.3092 65.4046 22.5948 64.5445 22.6152H63.9953V22.6327ZM57.96 12.3578V20.4005H63.2195C64.004 20.4005 64.7247 20.2228 65.3814 19.8672C66.0381 19.5117 66.5582 19.0222 66.9389 18.4015C67.3195 17.7837 67.5113 17.1222 67.5113 16.3558C67.5113 15.5894 67.3253 14.9017 66.9476 14.2927C66.5698 13.6837 66.0555 13.2087 65.3988 12.8677C64.7421 12.5268 64.0156 12.3578 63.2195 12.3578H57.96Z" fill="#00412D"/>
</svg>
