<svg width="1148" height="20" viewBox="0 0 1148 20" fill="none" xmlns="http://www.w3.org/2000/svg">
<rect opacity="0.2" x="332.422" y="0.222656" width="482.878" height="19.0521" fill="#F8F5F0"/>
<path d="M316.755 6.05922L311.402 4.12405C311.239 4.06537 311.064 4.03516 310.888 4.03516C310.711 4.03516 310.537 4.06537 310.373 4.12405L305.021 6.05922C304.522 6.23823 304.195 6.66154 304.195 7.13082C304.195 11.9325 307.388 15.2513 310.371 16.3301C310.7 16.4487 311.07 16.4487 311.399 16.3301C313.789 15.4666 317.578 12.484 317.578 7.13082C317.578 6.66154 317.251 6.23823 316.755 6.05922ZM310.889 14.8304L310.886 5.61413L315.791 7.38723C315.699 11.0495 313.502 13.7031 310.889 14.8304Z" fill="#00412D"/>
<path d="M532.143 9.12666H531.614V8.03323C531.614 6.71338 530.891 5.9375 529.447 5.9375C528.003 5.9375 527.28 6.71338 527.28 8.03323V9.12666H526.643C526.344 9.12666 526.102 9.42097 526.102 9.67291V13.5998C526.102 13.8499 526.333 14.1187 526.617 14.1952L527.265 14.3715C527.609 14.4559 527.964 14.5027 528.322 14.511H530.572C530.93 14.5028 531.285 14.4558 531.629 14.3711L532.277 14.1948C532.56 14.1187 532.793 13.8499 532.793 13.5998V9.67291C532.793 9.42097 532.442 9.12666 532.143 9.12666ZM530.53 9.12666H528.364V7.85054C528.364 7.19221 528.796 6.84869 529.447 6.84869C530.099 6.84869 530.53 7.19221 530.53 7.85054V9.12666Z" fill="#00412D"/>
<path d="M560.917 11.6041C560.498 11.6041 560.131 11.507 559.818 11.3128C559.505 11.1186 559.261 10.8367 559.085 10.4671C558.916 10.0975 558.831 9.65903 558.831 9.15162C558.831 8.63795 558.916 8.19945 559.085 7.83612C559.261 7.47279 559.505 7.19402 559.818 6.99983C560.131 6.79937 560.498 6.69914 560.917 6.69914C561.331 6.69914 561.691 6.8025 561.998 7.00923C562.305 7.21595 562.509 7.49784 562.609 7.85491H562.505L562.599 6.78371H563.52C563.501 6.9779 563.483 7.1721 563.464 7.36629C563.451 7.55422 563.445 7.73902 563.445 7.92068V11.5195H562.496V10.4671H562.599C562.499 10.8179 562.292 11.0967 561.979 11.3034C561.672 11.5039 561.318 11.6041 560.917 11.6041ZM561.152 10.8618C561.56 10.8618 561.885 10.7177 562.13 10.4295C562.38 10.1414 562.505 9.71541 562.505 9.15162C562.505 8.58783 562.38 8.16499 562.13 7.8831C561.885 7.59494 561.56 7.45086 561.152 7.45086C560.739 7.45086 560.407 7.59494 560.156 7.8831C559.912 8.16499 559.79 8.58783 559.79 9.15162C559.79 9.71541 559.912 10.1414 560.156 10.4295C560.401 10.7177 560.733 10.8618 561.152 10.8618ZM566.455 11.6041C566.061 11.6041 565.697 11.554 565.365 11.4538C565.033 11.3535 564.758 11.2126 564.539 11.0309L564.83 10.3826C565.062 10.558 565.318 10.6895 565.6 10.7772C565.882 10.8649 566.17 10.9088 566.465 10.9088C566.809 10.9088 567.069 10.8492 567.245 10.7302C567.42 10.6049 567.508 10.4358 567.508 10.2228C567.508 10.0599 567.451 9.9284 567.339 9.82817C567.232 9.72794 567.054 9.65277 566.803 9.60265L565.901 9.42412C565.5 9.33642 565.196 9.18607 564.99 8.97309C564.783 8.7601 564.68 8.4876 564.68 8.1556C564.68 7.8737 564.755 7.62313 564.905 7.40388C565.062 7.18463 565.281 7.01236 565.563 6.88707C565.851 6.76179 566.186 6.69914 566.568 6.69914C566.919 6.69914 567.245 6.74926 567.545 6.84949C567.846 6.94972 568.097 7.09379 568.297 7.28172L567.996 7.91129C567.802 7.74842 567.583 7.62313 567.339 7.53543C567.094 7.44146 566.847 7.39448 566.596 7.39448C566.246 7.39448 565.986 7.46026 565.817 7.59181C565.647 7.72336 565.563 7.89563 565.563 8.10861C565.563 8.27149 565.613 8.40617 565.713 8.51266C565.82 8.61289 565.986 8.69119 566.211 8.74757L567.113 8.92611C567.539 9.01381 567.859 9.15789 568.072 9.35834C568.285 9.5588 568.391 9.82817 568.391 10.1664C568.391 10.4609 568.31 10.7177 568.147 10.937C567.984 11.1562 567.758 11.3222 567.47 11.435C567.182 11.5477 566.844 11.6041 566.455 11.6041ZM571.306 11.6041C570.792 11.6041 570.404 11.4663 570.14 11.1907C569.877 10.9088 569.746 10.4891 569.746 9.93153V7.51664H568.825V6.78371H569.746V5.53398L570.695 5.28028V6.78371H572.01V7.51664H570.695V9.84696C570.695 10.1978 570.757 10.4483 570.883 10.5987C571.008 10.749 571.19 10.8242 571.428 10.8242C571.547 10.8242 571.65 10.8148 571.738 10.796C571.832 10.7709 571.916 10.7428 571.992 10.7114V11.4819C571.898 11.5195 571.788 11.5477 571.663 11.5665C571.537 11.5916 571.418 11.6041 571.306 11.6041ZM574.559 11.6041C573.989 11.6041 573.56 11.4506 573.272 11.1437C572.99 10.8305 572.849 10.3512 572.849 9.70601V6.78371H573.798V9.68722C573.798 10.0819 573.88 10.3732 574.043 10.5611C574.205 10.749 574.453 10.843 574.785 10.843C575.161 10.843 575.465 10.7177 575.696 10.4671C575.928 10.2166 576.044 9.88455 576.044 9.4711V6.78371H576.993V11.5195H576.072V10.5047H576.194C576.063 10.8555 575.853 11.128 575.565 11.3222C575.277 11.5101 574.942 11.6041 574.559 11.6041ZM579.774 11.5195L577.744 6.78371H578.759L580.356 10.7396H580.084L581.71 6.78371H582.677L580.638 11.5195H579.774ZM585.537 11.6041C584.773 11.6041 584.171 11.388 583.733 10.9557C583.294 10.5235 583.075 9.92526 583.075 9.16102C583.075 8.66614 583.169 8.2339 583.357 7.8643C583.551 7.49471 583.817 7.20968 584.156 7.00923C584.5 6.8025 584.898 6.69914 585.349 6.69914C585.794 6.69914 586.166 6.79311 586.467 6.98104C586.768 7.16897 586.996 7.4352 587.153 7.77974C587.31 8.11801 587.388 8.51893 587.388 8.98248V9.28317H583.817V8.73818H586.74L586.58 8.86033C586.58 8.39051 586.473 8.02718 586.26 7.77034C586.054 7.50724 585.753 7.37569 585.358 7.37569C584.92 7.37569 584.582 7.52916 584.344 7.83612C584.106 8.1368 583.986 8.55338 583.986 9.08585V9.17981C583.986 9.73733 584.121 10.157 584.391 10.4389C584.666 10.7208 585.055 10.8618 585.556 10.8618C585.831 10.8618 586.088 10.8242 586.326 10.749C586.571 10.6676 586.802 10.536 587.022 10.3544L587.332 11.0027C587.112 11.1969 586.846 11.3473 586.533 11.4538C586.22 11.554 585.888 11.6041 585.537 11.6041ZM590.31 11.6041C589.796 11.6041 589.408 11.4663 589.144 11.1907C588.881 10.9088 588.75 10.4891 588.75 9.93153V7.51664H587.829V6.78371H588.75V5.53398L589.699 5.28028V6.78371H591.014V7.51664H589.699V9.84696C589.699 10.1978 589.761 10.4483 589.887 10.5987C590.012 10.749 590.194 10.8242 590.432 10.8242C590.551 10.8242 590.654 10.8148 590.742 10.796C590.836 10.7709 590.92 10.7428 590.996 10.7114V11.4819C590.902 11.5195 590.792 11.5477 590.667 11.5665C590.541 11.5916 590.422 11.6041 590.31 11.6041ZM591.887 11.5195V10.4014H593.005V11.5195H591.887ZM596.142 11.6041C595.666 11.6041 595.249 11.507 594.892 11.3128C594.541 11.1124 594.269 10.8273 594.075 10.4577C593.887 10.0819 593.793 9.63711 593.793 9.12343C593.793 8.61602 593.89 8.18065 594.084 7.81732C594.278 7.45399 594.551 7.17836 594.902 6.99043C595.252 6.79624 595.666 6.69914 596.142 6.69914C596.449 6.69914 596.746 6.75239 597.035 6.85888C597.323 6.95911 597.561 7.10319 597.749 7.29112L597.439 7.95827C597.263 7.78913 597.066 7.66385 596.847 7.58241C596.627 7.49471 596.414 7.45086 596.208 7.45086C595.757 7.45086 595.403 7.59494 595.146 7.8831C594.889 8.17126 594.761 8.58783 594.761 9.13283C594.761 9.68409 594.889 10.1069 595.146 10.4014C595.403 10.6958 595.757 10.843 596.208 10.843C596.408 10.843 596.618 10.8054 596.837 10.7302C597.057 10.6488 597.257 10.5204 597.439 10.345L597.749 11.0121C597.555 11.2001 597.31 11.3473 597.016 11.4538C596.728 11.554 596.436 11.6041 596.142 11.6041ZM600.692 11.6041C600.222 11.6041 599.815 11.507 599.471 11.3128C599.126 11.1124 598.86 10.8305 598.672 10.4671C598.484 10.0975 598.39 9.65903 598.39 9.15162C598.39 8.64421 598.484 8.20884 598.672 7.84551C598.86 7.47592 599.126 7.19402 599.471 6.99983C599.815 6.79937 600.222 6.69914 600.692 6.69914C601.162 6.69914 601.569 6.79937 601.914 6.99983C602.265 7.19402 602.534 7.47592 602.722 7.84551C602.916 8.20884 603.013 8.64421 603.013 9.15162C603.013 9.65903 602.916 10.0975 602.722 10.4671C602.534 10.8305 602.265 11.1124 601.914 11.3128C601.569 11.507 601.162 11.6041 600.692 11.6041ZM600.692 10.8618C601.106 10.8618 601.435 10.7177 601.679 10.4295C601.923 10.1414 602.045 9.71541 602.045 9.15162C602.045 8.58783 601.923 8.16499 601.679 7.8831C601.435 7.59494 601.106 7.45086 600.692 7.45086C600.285 7.45086 599.959 7.59494 599.715 7.8831C599.471 8.16499 599.349 8.58783 599.349 9.15162C599.349 9.71541 599.468 10.1414 599.706 10.4295C599.95 10.7177 600.279 10.8618 600.692 10.8618ZM604.123 11.5195V7.92068C604.123 7.73902 604.113 7.55422 604.094 7.36629C604.082 7.1721 604.066 6.9779 604.047 6.78371H604.968L605.053 7.77974H604.94C605.072 7.4352 605.272 7.16897 605.541 6.98104C605.817 6.79311 606.146 6.69914 606.528 6.69914C606.916 6.69914 607.233 6.79311 607.477 6.98104C607.728 7.1627 607.9 7.4446 607.994 7.82672H607.844C607.969 7.48218 608.182 7.20968 608.482 7.00923C608.783 6.8025 609.131 6.69914 609.525 6.69914C610.052 6.69914 610.446 6.85262 610.709 7.15957C610.973 7.46652 611.104 7.94261 611.104 8.58783V11.5195H610.155V8.63482C610.155 8.22137 610.083 7.92382 609.939 7.74215C609.801 7.55422 609.576 7.46026 609.262 7.46026C608.899 7.46026 608.611 7.58554 608.398 7.83612C608.185 8.08669 608.078 8.42496 608.078 8.85093V11.5195H607.129V8.63482C607.129 8.22137 607.057 7.92382 606.913 7.74215C606.775 7.55422 606.55 7.46026 606.237 7.46026C605.873 7.46026 605.588 7.58554 605.382 7.83612C605.175 8.08669 605.072 8.42496 605.072 8.85093V11.5195H604.123Z" fill="#00412D"/>
<ellipse cx="5.32014" cy="9.74792" rx="4.46076" ry="3.81042" fill="#00412D"/>
<ellipse opacity="0.6" cx="19.8201" cy="9.74792" rx="4.46076" ry="3.81042" fill="#00412D"/>
<ellipse opacity="0.3" cx="34.3201" cy="9.74792" rx="4.46076" ry="3.81042" fill="#00412D"/>
<path d="M67.7812 6.89062H68.8964" stroke="#00412D" stroke-width="1.04405" stroke-linecap="square" stroke-linejoin="round"/>
<path d="M67.7812 8.79297H68.8964" stroke="#00412D" stroke-width="1.04405" stroke-linecap="square" stroke-linejoin="round"/>
<rect x="65.017" y="4.46626" width="16.6567" height="11.5227" stroke="#00412D" stroke-width="1.04405"/>
<path d="M71.1328 4.51172V15.943" stroke="#00412D" stroke-width="1.04405" stroke-linecap="square" stroke-linejoin="round"/>
<path d="M805.213 5.8436C804.489 5.84082 803.773 5.97706 803.118 6.24227C802.464 6.50747 801.888 6.89486 801.432 7.37583C800.012 8.86029 799.995 11.0649 801.398 12.5641C803.247 14.5483 806.62 14.6732 808.654 12.9352C809.304 12.3803 809.756 11.6794 809.958 10.9139C810.159 10.1483 810.103 9.34956 809.794 8.61043C809.644 8.24666 809.106 8.1401 808.788 8.41201C808.628 8.54796 808.564 8.75005 808.637 8.9301C808.925 9.60238 808.932 10.3387 808.659 11.0153C808.385 11.6918 807.848 12.2673 807.136 12.6449C805.97 13.2806 804.422 13.2733 803.264 12.6302C802.802 12.3803 802.411 12.0448 802.121 11.6484C801.831 11.252 801.648 10.805 801.588 10.3404C801.527 9.87573 801.589 9.40538 801.77 8.96411C801.951 8.52283 802.245 8.12192 802.632 7.79103C803.346 7.18108 804.28 6.8908 805.213 6.89448L805.213 8.00415C805.213 8.46712 805.867 8.70229 806.25 8.37526L807.794 7.05615C808.031 6.85406 808.031 6.52336 807.794 6.32127L806.25 5.00216C805.867 4.67514 805.209 4.90662 805.209 5.3696L805.213 5.8436Z" fill="#00412D"/>
<path fill-rule="evenodd" clip-rule="evenodd" d="M1131.8 5.85466C1131.8 5.17289 1132.43 4.6009 1133.29 4.59967C1134.16 4.59836 1134.72 4.6009 1134.72 4.6009C1134.72 4.6009 1134.68 3.87231 1134.68 3.29287C1134.68 2.71327 1135.28 2.13326 1136.14 2.13326C1137.01 2.13326 1145.04 2.11197 1145.85 2.16355C1146.66 2.21512 1147.31 2.65252 1147.31 3.35607C1147.31 4.05961 1147.31 11.0355 1147.31 11.6817C1147.31 12.3278 1146.63 12.9148 1145.79 12.9229C1144.95 12.9311 1144.38 12.9147 1144.38 12.9147C1144.38 12.9147 1144.41 13.7309 1144.41 14.2323C1144.41 14.7335 1143.72 15.4615 1142.92 15.4615C1142.12 15.4615 1134 15.5059 1133.22 15.5059C1132.45 15.5059 1131.73 14.9234 1131.77 14.1971C1131.8 13.4709 1131.8 6.53626 1131.8 5.85466H1131.8ZM1136.21 3.52258L1136.21 11.5587C1136.21 11.6485 1136.29 11.7216 1136.4 11.7212L1145.56 11.6794C1145.61 11.6792 1145.66 11.6618 1145.69 11.6309C1145.73 11.6001 1145.75 11.5583 1145.75 11.5149L1145.74 3.55082C1145.74 3.50723 1145.72 3.46544 1145.69 3.43463C1145.65 3.40382 1145.6 3.38652 1145.55 3.38652L1136.41 3.35983C1136.38 3.35962 1136.36 3.36367 1136.33 3.37175C1136.31 3.37983 1136.29 3.39178 1136.27 3.40691C1136.25 3.42204 1136.24 3.44005 1136.23 3.45991C1136.22 3.47976 1136.21 3.50106 1136.21 3.52258ZM1133.28 6.18784L1133.37 14.067C1133.37 14.1104 1133.39 14.1518 1133.43 14.1822C1133.46 14.2126 1133.51 14.2295 1133.56 14.2292L1142.58 14.1707C1142.63 14.1705 1142.68 14.1617 1142.73 14.145C1142.78 14.1283 1142.82 14.1039 1142.85 14.0733C1142.89 14.0426 1142.92 14.0063 1142.93 13.9665C1142.95 13.9267 1142.96 13.884 1142.96 13.8411L1142.95 12.9294C1142.95 12.9294 1136.92 12.9767 1136.14 12.9767C1135.36 12.9767 1134.66 12.3431 1134.66 11.63C1134.66 10.917 1134.72 6.00594 1134.72 6.00594C1134.72 5.91589 1134.63 5.84303 1134.53 5.84426L1133.66 5.8549C1133.56 5.85609 1133.46 5.8918 1133.39 5.95421C1133.32 6.01662 1133.28 6.10064 1133.28 6.18784Z" fill="#00412D"/>
<path d="M1105.74 8.08321V3.08203H1104.07V8.08321H1098.21V9.51212H1104.07V14.5133H1105.74V9.51212H1111.59V8.08321H1105.74Z" fill="#00412D"/>
<path d="M1071.45 2.12891L1068.47 4.66919H1070.7V10.3848H1072.19V4.66919H1074.42L1071.45 2.12891ZM1075.91 16.1005H1066.99C1066.59 16.1005 1066.21 15.9666 1065.94 15.7284C1065.66 15.4902 1065.5 15.1672 1065.5 14.8303V7.20947C1065.5 6.87261 1065.66 6.54954 1065.94 6.31134C1066.21 6.07315 1066.59 5.93933 1066.99 5.93933H1069.22V7.20947H1066.99V14.8303H1075.91V7.20947H1073.68V5.93933H1075.91C1076.3 5.93933 1076.68 6.07315 1076.96 6.31134C1077.24 6.54954 1077.4 6.87261 1077.4 7.20947V14.8303C1077.4 15.1672 1077.24 15.4902 1076.96 15.7284C1076.68 15.9666 1076.3 16.1005 1075.91 16.1005Z" fill="#00412D"/>
<path d="M106.053 4.82812L100.477 9.59115L105.495 13.8779" stroke="#00412D" stroke-width="1.56608" stroke-linecap="round" stroke-linejoin="round"/>
<path opacity="0.5" d="M126.682 13.8789L132.258 9.11588L127.239 4.82915" stroke="#00412D" stroke-width="1.56608" stroke-linecap="round" stroke-linejoin="round"/>
</svg>
