<svg width="1148" height="20" viewBox="0 0 1148 20" fill="none" xmlns="http://www.w3.org/2000/svg">
<rect opacity="0.2" x="332.424" y="0.667969" width="482.878" height="19.0521" fill="#F8F5F0"/>
<path d="M316.759 6.50454L311.406 4.56937C311.243 4.51068 311.068 4.48047 310.892 4.48047C310.715 4.48047 310.54 4.51068 310.377 4.56937L305.024 6.50454C304.525 6.68354 304.199 7.10686 304.199 7.57614C304.199 12.3778 307.391 15.6966 310.375 16.7754C310.704 16.894 311.074 16.894 311.403 16.7754C313.793 15.9119 317.582 12.9293 317.582 7.57614C317.582 7.10686 317.255 6.68354 316.759 6.50454ZM310.893 15.2757L310.89 6.05945L315.794 7.83255C315.702 11.4949 313.505 14.1485 310.893 15.2757Z" fill="#00412D"/>
<path d="M532.141 9.56806H531.612V8.47464C531.612 7.15478 530.889 6.37891 529.445 6.37891C528.001 6.37891 527.279 7.15478 527.279 8.47464V9.56806H526.641C526.342 9.56806 526.1 9.86238 526.1 10.1143V14.0412C526.1 14.2913 526.331 14.5601 526.615 14.6366L527.263 14.8129C527.607 14.8973 527.962 14.9441 528.32 14.9524H530.57C530.928 14.9442 531.283 14.8972 531.627 14.8125L532.275 14.6362C532.558 14.5601 532.791 14.2913 532.791 14.0412V10.1143C532.791 9.86238 532.44 9.56806 532.141 9.56806ZM530.529 9.56806H528.362V8.29195C528.362 7.63361 528.794 7.29009 529.445 7.29009C530.097 7.29009 530.529 7.63361 530.529 8.29195V9.56806Z" fill="#00412D"/>
<path d="M560.494 11.9609V7.22512H561.443V11.9609H560.494ZM560.419 6.23849V5.25186H561.518V6.23849H560.419ZM562.834 11.9609V8.36209C562.834 8.18042 562.825 7.99563 562.806 7.8077C562.793 7.6135 562.778 7.41931 562.759 7.22512H563.68L563.764 8.22114H563.652C563.783 7.87661 563.984 7.61037 564.253 7.42244C564.529 7.23451 564.857 7.14055 565.24 7.14055C565.628 7.14055 565.944 7.23451 566.189 7.42244C566.439 7.60411 566.611 7.886 566.705 8.26813H566.555C566.68 7.92359 566.893 7.65109 567.194 7.45063C567.495 7.24391 567.842 7.14055 568.237 7.14055C568.763 7.14055 569.158 7.29402 569.421 7.60098C569.684 7.90793 569.816 8.38402 569.816 9.02924V11.9609H568.867V9.07622C568.867 8.66278 568.795 8.36522 568.65 8.18356C568.513 7.99563 568.287 7.90166 567.974 7.90166C567.611 7.90166 567.322 8.02695 567.109 8.27752C566.896 8.52809 566.79 8.86637 566.79 9.29234V11.9609H565.841V9.07622C565.841 8.66278 565.769 8.36522 565.625 8.18356C565.487 7.99563 565.261 7.90166 564.948 7.90166C564.585 7.90166 564.3 8.02695 564.093 8.27752C563.886 8.52809 563.783 8.86637 563.783 9.29234V11.9609H562.834ZM572.989 12.0455C572.569 12.0455 572.203 11.9484 571.889 11.7542C571.576 11.56 571.332 11.2781 571.156 10.9085C570.987 10.5389 570.903 10.1004 570.903 9.59303C570.903 9.07935 570.987 8.64085 571.156 8.27752C571.332 7.91419 571.576 7.63543 571.889 7.44124C572.203 7.24078 572.569 7.14055 572.989 7.14055C573.402 7.14055 573.762 7.24391 574.069 7.45063C574.376 7.65735 574.58 7.93925 574.68 8.29631H574.577L574.671 7.22512H575.592C575.573 7.41931 575.554 7.6135 575.535 7.8077C575.523 7.99563 575.516 8.18042 575.516 8.36209V11.9609H574.567V10.9085H574.671C574.571 11.2593 574.364 11.5381 574.051 11.7448C573.744 11.9453 573.39 12.0455 572.989 12.0455ZM573.224 11.3032C573.631 11.3032 573.957 11.1591 574.201 10.8709C574.451 10.5828 574.577 10.1568 574.577 9.59303C574.577 9.02924 574.451 8.6064 574.201 8.3245C573.957 8.03635 573.631 7.89227 573.224 7.89227C572.81 7.89227 572.478 8.03635 572.228 8.3245C571.983 8.6064 571.861 9.02924 571.861 9.59303C571.861 10.1568 571.983 10.5828 572.228 10.8709C572.472 11.1591 572.804 11.3032 573.224 11.3032ZM576.882 11.9609V8.39968C576.882 8.20548 576.876 8.01129 576.864 7.81709C576.857 7.61664 576.845 7.41931 576.826 7.22512H577.747L577.85 8.44666H577.7C577.763 8.15224 577.869 7.90793 578.019 7.71373C578.17 7.51954 578.351 7.37546 578.564 7.2815C578.784 7.18753 579.012 7.14055 579.25 7.14055C579.351 7.14055 579.435 7.14681 579.504 7.15934C579.573 7.16561 579.642 7.17813 579.711 7.19693L579.701 8.04261C579.595 7.99876 579.501 7.9737 579.419 7.96744C579.344 7.95491 579.25 7.94865 579.138 7.94865C578.862 7.94865 578.627 8.01129 578.433 8.13657C578.239 8.2556 578.091 8.41847 577.991 8.62519C577.891 8.83191 577.841 9.0543 577.841 9.29234V11.9609H576.882ZM582.568 12.0455C581.804 12.0455 581.203 11.8294 580.764 11.3971C580.326 10.9649 580.107 10.3667 580.107 9.60242C580.107 9.10754 580.2 8.67531 580.388 8.30571C580.583 7.93612 580.849 7.65109 581.187 7.45063C581.532 7.24391 581.929 7.14055 582.38 7.14055C582.825 7.14055 583.198 7.23451 583.499 7.42244C583.799 7.61037 584.028 7.87661 584.185 8.22114C584.341 8.55942 584.419 8.96033 584.419 9.42389V9.72458H580.849V9.17958H583.771L583.611 9.30174C583.611 8.83191 583.505 8.46858 583.292 8.21175C583.085 7.94865 582.785 7.81709 582.39 7.81709C581.951 7.81709 581.613 7.97057 581.375 8.27752C581.137 8.57821 581.018 8.99479 581.018 9.52725V9.62122C581.018 10.1787 581.153 10.5984 581.422 10.8803C581.698 11.1622 582.086 11.3032 582.587 11.3032C582.863 11.3032 583.12 11.2656 583.358 11.1904C583.602 11.109 583.834 10.9774 584.053 10.7958L584.363 11.4441C584.144 11.6383 583.878 11.7887 583.564 11.8952C583.251 11.9954 582.919 12.0455 582.568 12.0455ZM587.698 12.0455C586.934 12.0455 586.332 11.8294 585.894 11.3971C585.455 10.9649 585.236 10.3667 585.236 9.60242C585.236 9.10754 585.33 8.67531 585.518 8.30571C585.712 7.93612 585.978 7.65109 586.317 7.45063C586.661 7.24391 587.059 7.14055 587.51 7.14055C587.955 7.14055 588.327 7.23451 588.628 7.42244C588.929 7.61037 589.157 7.87661 589.314 8.22114C589.471 8.55942 589.549 8.96033 589.549 9.42389V9.72458H585.978V9.17958H588.901L588.741 9.30174C588.741 8.83191 588.634 8.46858 588.421 8.21175C588.215 7.94865 587.914 7.81709 587.519 7.81709C587.081 7.81709 586.743 7.97057 586.505 8.27752C586.267 8.57821 586.147 8.99479 586.147 9.52725V9.62122C586.147 10.1787 586.282 10.5984 586.552 10.8803C586.827 11.1622 587.216 11.3032 587.717 11.3032C587.992 11.3032 588.249 11.2656 588.487 11.1904C588.732 11.109 588.963 10.9774 589.183 10.7958L589.493 11.4441C589.273 11.6383 589.007 11.7887 588.694 11.8952C588.381 11.9954 588.049 12.0455 587.698 12.0455ZM590.497 11.9609V10.8428H591.615V11.9609H590.497ZM594.752 12.0455C594.276 12.0455 593.859 11.9484 593.502 11.7542C593.151 11.5538 592.879 11.2687 592.685 10.8991C592.497 10.5233 592.403 10.0785 592.403 9.56484C592.403 9.05743 592.5 8.62206 592.694 8.25873C592.888 7.8954 593.161 7.61977 593.511 7.43184C593.862 7.23765 594.276 7.14055 594.752 7.14055C595.059 7.14055 595.356 7.1938 595.644 7.30029C595.933 7.40052 596.171 7.5446 596.359 7.73253L596.049 8.39968C595.873 8.23054 595.676 8.10525 595.457 8.02382C595.237 7.93612 595.024 7.89227 594.818 7.89227C594.367 7.89227 594.013 8.03635 593.756 8.3245C593.499 8.61266 593.371 9.02924 593.371 9.57423C593.371 10.1255 593.499 10.5483 593.756 10.8428C594.013 11.1372 594.367 11.2844 594.818 11.2844C595.018 11.2844 595.228 11.2468 595.447 11.1716C595.666 11.0902 595.867 10.9618 596.049 10.7864L596.359 11.4535C596.164 11.6415 595.92 11.7887 595.626 11.8952C595.338 11.9954 595.046 12.0455 594.752 12.0455ZM599.302 12.0455C598.832 12.0455 598.425 11.9484 598.081 11.7542C597.736 11.5538 597.47 11.2719 597.282 10.9085C597.094 10.5389 597 10.1004 597 9.59303C597 9.08562 597.094 8.65025 597.282 8.28692C597.47 7.91732 597.736 7.63543 598.081 7.44124C598.425 7.24078 598.832 7.14055 599.302 7.14055C599.772 7.14055 600.179 7.24078 600.524 7.44124C600.874 7.63543 601.144 7.91732 601.332 8.28692C601.526 8.65025 601.623 9.08562 601.623 9.59303C601.623 10.1004 601.526 10.5389 601.332 10.9085C601.144 11.2719 600.874 11.5538 600.524 11.7542C600.179 11.9484 599.772 12.0455 599.302 12.0455ZM599.302 11.3032C599.716 11.3032 600.044 11.1591 600.289 10.8709C600.533 10.5828 600.655 10.1568 600.655 9.59303C600.655 9.02924 600.533 8.6064 600.289 8.3245C600.044 8.03635 599.716 7.89227 599.302 7.89227C598.895 7.89227 598.569 8.03635 598.325 8.3245C598.081 8.6064 597.958 9.02924 597.958 9.59303C597.958 10.1568 598.077 10.5828 598.315 10.8709C598.56 11.1591 598.889 11.3032 599.302 11.3032ZM602.732 11.9609V8.36209C602.732 8.18042 602.723 7.99563 602.704 7.8077C602.692 7.6135 602.676 7.41931 602.657 7.22512H603.578L603.663 8.22114H603.55C603.681 7.87661 603.882 7.61037 604.151 7.42244C604.427 7.23451 604.756 7.14055 605.138 7.14055C605.526 7.14055 605.843 7.23451 606.087 7.42244C606.337 7.60411 606.51 7.886 606.604 8.26813H606.453C606.579 7.92359 606.792 7.65109 607.092 7.45063C607.393 7.24391 607.741 7.14055 608.135 7.14055C608.661 7.14055 609.056 7.29402 609.319 7.60098C609.582 7.90793 609.714 8.38402 609.714 9.02924V11.9609H608.765V9.07622C608.765 8.66278 608.693 8.36522 608.549 8.18356C608.411 7.99563 608.185 7.90166 607.872 7.90166C607.509 7.90166 607.221 8.02695 607.008 8.27752C606.795 8.52809 606.688 8.86637 606.688 9.29234V11.9609H605.739V9.07622C605.739 8.66278 605.667 8.36522 605.523 8.18356C605.385 7.99563 605.16 7.90166 604.847 7.90166C604.483 7.90166 604.198 8.02695 603.991 8.27752C603.785 8.52809 603.681 8.86637 603.681 9.29234V11.9609H602.732Z" fill="#00412D"/>
<ellipse cx="5.32795" cy="10.1932" rx="4.46076" ry="3.81042" fill="#00412D"/>
<ellipse opacity="0.6" cx="19.826" cy="10.1932" rx="4.46076" ry="3.81042" fill="#00412D"/>
<ellipse opacity="0.3" cx="34.3201" cy="10.1932" rx="4.46076" ry="3.81042" fill="#00412D"/>
<path d="M67.7793 7.33594H68.8945" stroke="#00412D" stroke-width="1.04405" stroke-linecap="square" stroke-linejoin="round"/>
<path d="M67.7793 9.24219H68.8945" stroke="#00412D" stroke-width="1.04405" stroke-linecap="square" stroke-linejoin="round"/>
<rect x="65.0248" y="4.91157" width="16.6567" height="11.5227" stroke="#00412D" stroke-width="1.04405"/>
<path d="M71.125 4.95703V16.3883" stroke="#00412D" stroke-width="1.04405" stroke-linecap="square" stroke-linejoin="round"/>
<path d="M805.205 6.28891C804.481 6.28613 803.765 6.42238 803.111 6.68758C802.456 6.95278 801.88 7.34017 801.424 7.82114C800.005 9.3056 799.987 11.5102 801.39 13.0094C803.239 14.9936 806.612 15.1185 808.646 13.3805C809.296 12.8256 809.748 12.1247 809.95 11.3592C810.151 10.5936 810.095 9.79488 809.786 9.05574C809.636 8.69197 809.098 8.58542 808.78 8.85732C808.621 8.99327 808.556 9.19537 808.629 9.37541C808.917 10.0477 808.924 10.784 808.651 11.4606C808.378 12.1372 807.84 12.7126 807.128 13.0902C805.962 13.7259 804.414 13.7186 803.257 13.0755C802.794 12.8256 802.403 12.4901 802.113 12.0937C801.823 11.6973 801.64 11.2503 801.58 10.7857C801.519 10.321 801.581 9.85069 801.762 9.40942C801.943 8.96814 802.238 8.56724 802.624 8.23635C803.338 7.62639 804.272 7.33612 805.205 7.33979L805.205 8.44946C805.205 8.91244 805.859 9.1476 806.242 8.82058L807.786 7.50146C808.023 7.29937 808.023 6.96868 807.786 6.76658L806.242 5.44747C805.859 5.12045 805.201 5.35194 805.201 5.81491L805.205 6.28891Z" fill="#00412D"/>
<path fill-rule="evenodd" clip-rule="evenodd" d="M1131.79 6.29606C1131.79 5.61429 1132.42 5.04231 1133.28 5.04108C1134.15 5.03977 1134.71 5.04231 1134.71 5.04231C1134.71 5.04231 1134.67 4.31371 1134.67 3.73428C1134.67 3.15467 1135.27 2.57466 1136.13 2.57466C1137 2.57466 1145.03 2.55338 1145.84 2.60495C1146.66 2.65653 1147.3 3.09393 1147.3 3.79747C1147.3 4.50102 1147.3 11.4769 1147.3 12.1231C1147.3 12.7692 1146.62 13.3562 1145.78 13.3643C1144.94 13.3725 1144.37 13.3561 1144.37 13.3561C1144.37 13.3561 1144.4 14.1723 1144.4 14.6737C1144.4 15.1749 1143.72 15.9029 1142.92 15.9029C1142.11 15.9029 1133.99 15.9473 1133.22 15.9473C1132.44 15.9473 1131.73 15.3648 1131.76 14.6385C1131.79 13.9123 1131.79 6.97767 1131.79 6.29606H1131.79ZM1136.21 3.96399L1136.2 12.0001C1136.2 12.0899 1136.29 12.163 1136.39 12.1626L1145.55 12.1208C1145.6 12.1206 1145.65 12.1032 1145.68 12.0723C1145.72 12.0415 1145.74 11.9997 1145.74 11.9563L1145.73 3.99223C1145.73 3.94863 1145.71 3.90684 1145.68 3.87604C1145.64 3.84523 1145.59 3.82793 1145.54 3.82793L1136.4 3.80124C1136.37 3.80102 1136.35 3.80507 1136.33 3.81315C1136.3 3.82123 1136.28 3.83318 1136.26 3.84832C1136.24 3.86345 1136.23 3.88146 1136.22 3.90131C1136.21 3.92117 1136.21 3.94247 1136.21 3.96399ZM1133.27 6.62925L1133.36 14.5084C1133.36 14.5518 1133.38 14.5932 1133.42 14.6236C1133.46 14.654 1133.5 14.6709 1133.55 14.6706L1142.58 14.6121C1142.63 14.6119 1142.68 14.6031 1142.72 14.5864C1142.77 14.5697 1142.81 14.5453 1142.85 14.5147C1142.88 14.484 1142.91 14.4477 1142.93 14.4079C1142.95 14.3681 1142.95 14.3255 1142.95 14.2825L1142.94 13.3708C1142.94 13.3708 1136.92 13.4181 1136.13 13.4181C1135.35 13.4181 1134.65 12.7845 1134.65 12.0714C1134.65 11.3584 1134.71 6.44735 1134.71 6.44735C1134.71 6.3573 1134.62 6.28444 1134.52 6.28567L1133.65 6.29631C1133.55 6.29749 1133.45 6.33321 1133.38 6.39562C1133.31 6.45803 1133.27 6.54204 1133.27 6.62925Z" fill="#00412D"/>
<path d="M1105.74 8.52852V3.52734H1104.07V8.52852H1098.22V9.95743H1104.07V14.9586H1105.74V9.95743H1111.6V8.52852H1105.74Z" fill="#00412D"/>
<path d="M1071.45 2.57031L1068.48 5.11059H1070.71V10.8262H1072.19V5.11059H1074.42L1071.45 2.57031ZM1075.91 16.5419H1066.99C1066.59 16.5419 1066.22 16.408 1065.94 16.1698C1065.66 15.9316 1065.5 15.6086 1065.5 15.2717V7.65088C1065.5 7.31401 1065.66 6.99095 1065.94 6.75275C1066.22 6.51455 1066.59 6.38073 1066.99 6.38073H1069.22V7.65088H1066.99V15.2717H1075.91V7.65088H1073.68V6.38073H1075.91C1076.3 6.38073 1076.68 6.51455 1076.96 6.75275C1077.24 6.99095 1077.4 7.31401 1077.4 7.65088V15.2717C1077.4 15.6086 1077.24 15.9316 1076.96 16.1698C1076.68 16.408 1076.3 16.5419 1075.91 16.5419Z" fill="#00412D"/>
<path d="M106.051 5.27344L100.475 10.0365L105.493 14.3232" stroke="#00412D" stroke-width="1.56608" stroke-linecap="round" stroke-linejoin="round"/>
<path opacity="0.5" d="M126.68 14.3242L132.256 9.56119L127.237 5.27447" stroke="#00412D" stroke-width="1.56608" stroke-linecap="round" stroke-linejoin="round"/>
</svg>
