<svg width="32" height="33" viewBox="0 0 32 33" fill="none" xmlns="http://www.w3.org/2000/svg">
<rect y="0.0546875" width="32" height="32" rx="15.9831" fill="#087A5B"/>
<g filter="url(#filter0_dddd_237_7759)">
<rect width="16.4202" height="10.9468" rx="0.912234" transform="matrix(1 0 0 -1 7.79004 21.5293)" fill="url(#paint0_linear_237_7759)"/>
<rect x="-0.0570146" y="0.0570146" width="16.5342" height="11.0608" rx="0.969249" transform="matrix(1 0 0 -1 7.79004 21.6433)" stroke="url(#paint1_linear_237_7759)" stroke-width="0.114029"/>
</g>
<mask id="mask0_237_7759" style="mask-type:alpha" maskUnits="userSpaceOnUse" x="7" y="10" width="18" height="12">
<rect x="7.79004" y="10.582" width="16.4202" height="10.9468" rx="0.912234" fill="black"/>
</mask>
<g mask="url(#mask0_237_7759)">
<g opacity="0.4">
<g filter="url(#filter1_f_237_7759)">
<path d="M8.13281 21.5273H23.8688L16.9764 15.3341C16.6315 15.0242 16.4591 14.8693 16.2641 14.8105C16.0924 14.7588 15.9092 14.7588 15.7375 14.8105C15.5426 14.8693 15.3702 15.0242 15.0253 15.3341L8.13281 21.5273Z" fill="#334155" fill-opacity="0.4"/>
</g>
<g filter="url(#filter2_f_237_7759)">
<path d="M9.04492 21.5273H22.9565L17.0872 14.9845C16.7111 14.5652 16.523 14.3556 16.3013 14.2782C16.1067 14.2103 15.8947 14.2103 15.7001 14.2782C15.4784 14.3556 15.2904 14.5652 14.9142 14.9845L9.04492 21.5273Z" fill="#334155" fill-opacity="0.2"/>
</g>
<g filter="url(#filter3_f_237_7759)">
<path d="M8.13281 21.5273H23.8688L17.0683 14.234C16.6973 13.8361 16.5118 13.6371 16.2948 13.5633C16.1042 13.4984 15.8975 13.4984 15.7068 13.5633C15.4899 13.6371 15.3044 13.8361 14.9333 14.234L8.13281 21.5273Z" fill="#334155" fill-opacity="0.1"/>
</g>
</g>
<path d="M7.79004 21.5293H24.2103L16.9526 15.2796C16.6146 14.9886 16.4457 14.8431 16.2561 14.7877C16.089 14.7389 15.9113 14.7389 15.7442 14.7877C15.5546 14.8431 15.3856 14.9886 15.0477 15.2796L7.79004 21.5293Z" fill="url(#paint2_linear_237_7759)"/>
<path d="M7.96094 21.3011L15.0484 15.219C15.3861 14.9292 15.5549 14.7843 15.7443 14.7292C15.9112 14.6806 16.0885 14.6807 16.2553 14.7294C16.4447 14.7848 16.6133 14.9299 16.9507 15.2201L24.1531 21.4151" stroke="#475569" stroke-opacity="0.06" stroke-width="0.114029"/>
<g style="mix-blend-mode:multiply" opacity="0.7">
<g filter="url(#filter4_f_237_7759)">
<path d="M8.13086 10.582L23.8669 10.582L16.9744 16.7753C16.6296 17.0851 16.4571 17.2401 16.2622 17.2989C16.0905 17.3506 15.9073 17.3506 15.7356 17.2989C15.5406 17.2401 15.3682 17.0851 15.0233 16.7753L8.13086 10.582Z" fill="#334155" fill-opacity="0.4"/>
</g>
<g filter="url(#filter5_f_237_7759)">
<path d="M9.04297 10.582L22.9545 10.582L17.0852 17.1249C16.7091 17.5442 16.521 17.7538 16.2994 17.8312C16.1047 17.8991 15.8928 17.8991 15.6981 17.8312C15.4765 17.7538 15.2884 17.5442 14.9123 17.1249L9.04297 10.582Z" fill="#334155" fill-opacity="0.2"/>
</g>
<g filter="url(#filter6_f_237_7759)">
<path d="M8.13086 10.582L23.8669 10.582L17.0664 17.8753C16.6953 18.2733 16.5098 18.4723 16.2929 18.5461C16.1022 18.611 15.8955 18.611 15.7049 18.5461C15.488 18.4723 15.3024 18.2733 14.9314 17.8753L8.13086 10.582Z" fill="#334155" fill-opacity="0.1"/>
</g>
<g filter="url(#filter7_f_237_7759)">
<path d="M8.70117 10.582L23.2969 10.582L16.504 18.0118C16.2327 18.3085 15.7654 18.3085 15.4941 18.0118L8.70117 10.582Z" fill="#334155" fill-opacity="0.05"/>
</g>
<g filter="url(#filter8_f_237_7759)">
<path d="M8.0166 10.4688L23.9807 10.4687L16.4642 17.4484C16.2017 17.6921 15.7956 17.6921 15.5331 17.4484L8.0166 10.4688Z" fill="#334155" fill-opacity="0.1"/>
</g>
</g>
<path d="M7.96094 10.8102L15.0484 16.8923C15.3861 17.1821 15.5549 17.327 15.7443 17.3822C15.9112 17.4308 16.0885 17.4307 16.2553 17.3819C16.4447 17.3265 16.6133 17.1814 16.9507 16.8913L24.1531 10.6962" stroke="#475569" stroke-opacity="0.06" stroke-width="0.114029"/>
<path d="M7.79004 10.584L24.2103 10.584L16.9526 16.8337C16.6146 17.1246 16.4457 17.2701 16.2561 17.3256C16.089 17.3744 15.9113 17.3744 15.7442 17.3256C15.5546 17.2701 15.3856 17.1246 15.0477 16.8337L7.79004 10.584Z" fill="url(#paint3_linear_237_7759)"/>
<g filter="url(#filter9_f_237_7759)">
<rect x="7.79004" y="10.582" width="16.4202" height="10.9468" stroke="url(#paint4_linear_237_7759)" stroke-width="1.82447"/>
</g>
<rect x="7.84705" y="10.639" width="16.3062" height="10.8328" rx="0.855219" stroke="white" stroke-opacity="0.4" stroke-width="0.114029"/>
</g>
<defs>
<filter id="filter0_dddd_237_7759" x="6.30743" y="10.2407" width="19.3851" height="16.1911" filterUnits="userSpaceOnUse" color-interpolation-filters="sRGB">
<feFlood flood-opacity="0" result="BackgroundImageFix"/>
<feColorMatrix in="SourceAlpha" type="matrix" values="0 0 0 0 0 0 0 0 0 0 0 0 0 0 0 0 0 0 127 0" result="hardAlpha"/>
<feOffset dy="0.228059"/>
<feGaussianBlur stdDeviation="0.228059"/>
<feColorMatrix type="matrix" values="0 0 0 0 0.117647 0 0 0 0 0.160784 0 0 0 0 0.231373 0 0 0 0.08 0"/>
<feBlend mode="normal" in2="BackgroundImageFix" result="effect1_dropShadow_237_7759"/>
<feColorMatrix in="SourceAlpha" type="matrix" values="0 0 0 0 0 0 0 0 0 0 0 0 0 0 0 0 0 0 127 0" result="hardAlpha"/>
<feOffset dy="0.912234"/>
<feGaussianBlur stdDeviation="0.456117"/>
<feColorMatrix type="matrix" values="0 0 0 0 0.117647 0 0 0 0 0.160784 0 0 0 0 0.231373 0 0 0 0.07 0"/>
<feBlend mode="normal" in2="effect1_dropShadow_237_7759" result="effect2_dropShadow_237_7759"/>
<feColorMatrix in="SourceAlpha" type="matrix" values="0 0 0 0 0 0 0 0 0 0 0 0 0 0 0 0 0 0 127 0" result="hardAlpha"/>
<feOffset dy="1.9385"/>
<feGaussianBlur stdDeviation="0.570146"/>
<feColorMatrix type="matrix" values="0 0 0 0 0.117647 0 0 0 0 0.160784 0 0 0 0 0.231373 0 0 0 0.04 0"/>
<feBlend mode="normal" in2="effect2_dropShadow_237_7759" result="effect3_dropShadow_237_7759"/>
<feColorMatrix in="SourceAlpha" type="matrix" values="0 0 0 0 0 0 0 0 0 0 0 0 0 0 0 0 0 0 127 0" result="hardAlpha"/>
<feOffset dy="3.42088"/>
<feGaussianBlur stdDeviation="0.684176"/>
<feColorMatrix type="matrix" values="0 0 0 0 0.117647 0 0 0 0 0.160784 0 0 0 0 0.231373 0 0 0 0.01 0"/>
<feBlend mode="normal" in2="effect3_dropShadow_237_7759" result="effect4_dropShadow_237_7759"/>
<feBlend mode="normal" in="SourceGraphic" in2="effect4_dropShadow_237_7759" result="shape"/>
</filter>
<filter id="filter1_f_237_7759" x="7.6767" y="14.3154" width="16.6486" height="7.66809" filterUnits="userSpaceOnUse" color-interpolation-filters="sRGB">
<feFlood flood-opacity="0" result="BackgroundImageFix"/>
<feBlend mode="normal" in="SourceGraphic" in2="BackgroundImageFix" result="shape"/>
<feGaussianBlur stdDeviation="0.228059" result="effect1_foregroundBlur_237_7759"/>
</filter>
<filter id="filter2_f_237_7759" x="7.67657" y="12.8582" width="16.6478" height="10.0375" filterUnits="userSpaceOnUse" color-interpolation-filters="sRGB">
<feFlood flood-opacity="0" result="BackgroundImageFix"/>
<feBlend mode="normal" in="SourceGraphic" in2="BackgroundImageFix" result="shape"/>
<feGaussianBlur stdDeviation="0.684176" result="effect1_foregroundBlur_237_7759"/>
</filter>
<filter id="filter3_f_237_7759" x="5.39611" y="10.777" width="21.2097" height="13.4871" filterUnits="userSpaceOnUse" color-interpolation-filters="sRGB">
<feFlood flood-opacity="0" result="BackgroundImageFix"/>
<feBlend mode="normal" in="SourceGraphic" in2="BackgroundImageFix" result="shape"/>
<feGaussianBlur stdDeviation="1.36835" result="effect1_foregroundBlur_237_7759"/>
</filter>
<filter id="filter4_f_237_7759" x="7.67474" y="10.1259" width="16.6486" height="7.66809" filterUnits="userSpaceOnUse" color-interpolation-filters="sRGB">
<feFlood flood-opacity="0" result="BackgroundImageFix"/>
<feBlend mode="normal" in="SourceGraphic" in2="BackgroundImageFix" result="shape"/>
<feGaussianBlur stdDeviation="0.228059" result="effect1_foregroundBlur_237_7759"/>
</filter>
<filter id="filter5_f_237_7759" x="7.67462" y="9.21368" width="16.6478" height="10.0375" filterUnits="userSpaceOnUse" color-interpolation-filters="sRGB">
<feFlood flood-opacity="0" result="BackgroundImageFix"/>
<feBlend mode="normal" in="SourceGraphic" in2="BackgroundImageFix" result="shape"/>
<feGaussianBlur stdDeviation="0.684176" result="effect1_foregroundBlur_237_7759"/>
</filter>
<filter id="filter6_f_237_7759" x="5.39416" y="7.84533" width="21.2097" height="13.4871" filterUnits="userSpaceOnUse" color-interpolation-filters="sRGB">
<feFlood flood-opacity="0" result="BackgroundImageFix"/>
<feBlend mode="normal" in="SourceGraphic" in2="BackgroundImageFix" result="shape"/>
<feGaussianBlur stdDeviation="1.36835" result="effect1_foregroundBlur_237_7759"/>
</filter>
<filter id="filter7_f_237_7759" x="7.56088" y="9.44174" width="16.8763" height="9.93293" filterUnits="userSpaceOnUse" color-interpolation-filters="sRGB">
<feFlood flood-opacity="0" result="BackgroundImageFix"/>
<feBlend mode="normal" in="SourceGraphic" in2="BackgroundImageFix" result="shape"/>
<feGaussianBlur stdDeviation="0.570146" result="effect1_foregroundBlur_237_7759"/>
</filter>
<filter id="filter8_f_237_7759" x="7.56048" y="10.0126" width="16.8761" height="8.07434" filterUnits="userSpaceOnUse" color-interpolation-filters="sRGB">
<feFlood flood-opacity="0" result="BackgroundImageFix"/>
<feBlend mode="normal" in="SourceGraphic" in2="BackgroundImageFix" result="shape"/>
<feGaussianBlur stdDeviation="0.228059" result="effect1_foregroundBlur_237_7759"/>
</filter>
<filter id="filter9_f_237_7759" x="5.9657" y="8.75769" width="20.0686" height="14.596" filterUnits="userSpaceOnUse" color-interpolation-filters="sRGB">
<feFlood flood-opacity="0" result="BackgroundImageFix"/>
<feBlend mode="normal" in="SourceGraphic" in2="BackgroundImageFix" result="shape"/>
<feGaussianBlur stdDeviation="0.456117" result="effect1_foregroundBlur_237_7759"/>
</filter>
<linearGradient id="paint0_linear_237_7759" x1="8.21011" y1="0" x2="8.21011" y2="10.9468" gradientUnits="userSpaceOnUse">
<stop offset="0.130208" stop-color="#EEF0F1"/>
<stop offset="0.848958" stop-color="#F9FAFA"/>
</linearGradient>
<linearGradient id="paint1_linear_237_7759" x1="8.21011" y1="0" x2="8.21011" y2="10.9468" gradientUnits="userSpaceOnUse">
<stop stop-color="#475569" stop-opacity="0.06"/>
<stop offset="1" stop-color="#475569" stop-opacity="0.04"/>
</linearGradient>
<linearGradient id="paint2_linear_237_7759" x1="16.0001" y1="14.4595" x2="16.0001" y2="21.5293" gradientUnits="userSpaceOnUse">
<stop offset="0.524194" stop-color="#F4F5F6"/>
<stop offset="1" stop-color="#EEF0F1"/>
</linearGradient>
<linearGradient id="paint3_linear_237_7759" x1="16.0001" y1="10.584" x2="16.0001" y2="17.6538" gradientUnits="userSpaceOnUse">
<stop offset="0.25" stop-color="#FAFAFB"/>
<stop offset="1" stop-color="#F4F5F6"/>
</linearGradient>
<linearGradient id="paint4_linear_237_7759" x1="16.0001" y1="10.6843" x2="16.0001" y2="21.5288" gradientUnits="userSpaceOnUse">
<stop stop-color="#F9FAFA"/>
<stop offset="0.693396" stop-color="#EEF0F1"/>
</linearGradient>
</defs>
</svg>
