<svg width="32" height="33" viewBox="0 0 32 33" fill="none" xmlns="http://www.w3.org/2000/svg">
<rect y="0.0546875" width="32" height="32" rx="16" fill="#087A5B"/>
<path d="M12.3191 22.5376V13.8935H9.4485V22.5376H12.3194H12.3191ZM10.8844 12.7135C11.8852 12.7135 12.5083 12.0497 12.5083 11.2202C12.4896 10.3718 11.8852 9.72656 10.9034 9.72656C9.92097 9.72656 9.2793 10.3718 9.2793 11.2202C9.2793 12.0497 9.90216 12.7134 10.8656 12.7134H10.8842L10.8844 12.7135ZM13.9081 22.5376H16.7784V17.7109C16.7784 17.4529 16.7972 17.1942 16.873 17.0099C17.0804 16.4935 17.5528 15.959 18.3459 15.959C19.3844 15.959 19.8001 16.7516 19.8001 17.9138V22.5376H22.6704V17.5814C22.6704 14.9264 21.2544 13.6909 19.3658 13.6909C17.8174 13.6909 17.1374 14.5571 16.7596 15.147H16.7787V13.8938H13.9082C13.9457 14.7047 13.908 22.5379 13.908 22.5379L13.9081 22.5376Z" fill="white"/>
</svg>
