<svg width="113" height="33" viewBox="0 0 113 33" fill="none" xmlns="http://www.w3.org/2000/svg">
<path d="M83.9861 6.58656C83.5909 6.87505 83.094 6.86922 82.8673 6.57199H82.8644L82.2542 5.73566C82.0247 5.43843 82.1467 4.95762 82.5303 4.64873L87.688 1.05281C88.153 0.679817 88.7632 0.668161 89.0392 1.0295L89.5041 1.63562C89.7831 1.99696 89.6146 2.58559 89.1322 2.93819L83.9861 6.58656Z" fill="#FFFDF6"/>
<path d="M19.9598 10.8813C20.2184 10.4383 20.4857 10.1294 20.7589 9.95751H20.7618C21.0349 9.78558 21.4185 9.69816 21.9154 9.69816H23.6733V32.7598H21.0756V14.3781C21.0756 14.1974 21.1163 13.9585 21.2034 13.6671H21.1715L13.0876 28.7967C12.9452 29.0648 12.7738 29.2688 12.5704 29.4028C12.3641 29.5369 12.1171 29.6039 11.8265 29.6039C11.2802 29.6039 10.8647 29.3329 10.5857 28.7938L2.50187 13.6642H2.46991C2.55418 13.9556 2.59776 14.1916 2.59776 14.3752V32.7598H0V9.69816H1.75799C2.25198 9.69816 2.63844 9.78558 2.91159 9.95751C3.18764 10.1323 3.45206 10.4383 3.71068 10.8813L11.6173 25.364C11.7132 25.5476 11.7829 25.8215 11.8265 26.1887H11.8439C11.8875 25.8215 11.9573 25.5476 12.0532 25.364L19.9598 10.8813Z" fill="#FFFDF6"/>
<path d="M90.0999 32.7598H77.6661V9.69816H91.7039V10.6948C91.7039 11.5835 90.9861 12.3033 90.0999 12.3033H80.2638V19.6671H89.542V20.6637C89.542 21.5524 88.8242 22.2722 87.938 22.2722H80.2638V30.1547H91.7039V31.1513C91.7039 32.04 90.9861 32.7598 90.0999 32.7598Z" fill="#FFFDF6"/>
<path d="M110.605 12.3033C111.492 12.3033 112.209 11.5835 112.209 10.6948V9.69816H98.1715V32.7598H110.605C111.492 32.7598 112.209 32.04 112.209 31.1513V30.1547H100.769V22.2722H108.443C109.33 22.2722 110.047 21.5524 110.047 20.6637V19.6671H100.769V12.3033H110.605Z" fill="#FFFDF6"/>
<path fill-rule="evenodd" clip-rule="evenodd" d="M40.6898 9.69795L50.7293 32.7654H49.0991C48.303 32.7654 47.7422 32.4099 47.4196 31.696L45.5628 27.4211H33.4719L31.6151 31.696C31.3129 32.407 30.7608 32.7654 29.953 32.7654H28.3054L38.3652 9.69795H40.6898ZM34.6371 24.7839H44.4179L40.0767 14.7975C39.7745 14.1069 39.6147 13.5357 39.5915 13.0811H39.4462C39.4258 13.5357 39.2689 14.1069 38.9783 14.7975L34.6371 24.7839Z" fill="#FFFDF6"/>
<path fill-rule="evenodd" clip-rule="evenodd" d="M63.9953 22.578C64.3266 22.6333 64.591 22.712 64.7857 22.814H64.7915C64.9862 22.9189 65.1634 23.0646 65.3232 23.2598L72.6167 32.7596H70.728C69.8882 32.7596 69.2489 32.4682 68.8073 31.8854L61.8683 22.9539H57.9629V32.7596H55.3652V9.69795H63.3357C64.5823 9.69795 65.7271 9.98935 66.7645 10.5722C67.8019 11.155 68.6184 11.9476 69.217 12.95C69.8127 13.9524 70.112 15.0685 70.112 16.2982C70.112 17.4638 69.833 18.5216 69.2722 19.4716C68.7114 20.4216 67.9995 21.1676 67.1335 21.7125C66.2676 22.2545 65.4046 22.5401 64.5445 22.5605H63.9953V22.578ZM57.96 12.3031V20.3458H63.2195C64.004 20.3458 64.7247 20.1681 65.3814 19.8126C66.0381 19.457 66.5582 18.9675 66.9389 18.3468C67.3195 17.729 67.5113 17.0675 67.5113 16.3011C67.5113 15.5348 67.3253 14.847 66.9476 14.238C66.5698 13.629 66.0555 13.154 65.3988 12.813C64.7421 12.4721 64.0156 12.3031 63.2195 12.3031H57.96Z" fill="#FFFDF6"/>
</svg>
