<svg width="20" height="21" viewBox="0 0 20 21" fill="none" xmlns="http://www.w3.org/2000/svg">
<path opacity="0.2" d="M13.7501 8.80469L5.80791 16.7469C5.69071 16.864 5.53181 16.9298 5.36612 16.9298C5.20043 16.9298 5.04152 16.864 4.92432 16.7469L3.30791 15.1328C3.19079 15.0156 3.125 14.8567 3.125 14.691C3.125 14.5253 3.19079 14.3664 3.30791 14.2492L11.2501 6.30469L13.7501 8.80469Z" fill="#00412D"/>
<path d="M19.3746 11.9297C19.3746 12.0954 19.3088 12.2544 19.1916 12.3716C19.0743 12.4888 18.9154 12.5547 18.7496 12.5547H17.4996V13.8047C17.4996 13.9704 17.4338 14.1294 17.3166 14.2466C17.1993 14.3638 17.0404 14.4297 16.8746 14.4297C16.7089 14.4297 16.5499 14.3638 16.4327 14.2466C16.3155 14.1294 16.2496 13.9704 16.2496 13.8047V12.5547H14.9996C14.8339 12.5547 14.6749 12.4888 14.5577 12.3716C14.4405 12.2544 14.3746 12.0954 14.3746 11.9297C14.3746 11.7639 14.4405 11.605 14.5577 11.4877C14.6749 11.3705 14.8339 11.3047 14.9996 11.3047H16.2496V10.0547C16.2496 9.88893 16.3155 9.72996 16.4327 9.61275C16.5499 9.49554 16.7089 9.42969 16.8746 9.42969C17.0404 9.42969 17.1993 9.49554 17.3166 9.61275C17.4338 9.72996 17.4996 9.88893 17.4996 10.0547V11.3047H18.7496C18.9154 11.3047 19.0743 11.3705 19.1916 11.4877C19.3088 11.605 19.3746 11.7639 19.3746 11.9297ZM4.37462 5.67969H5.62462V6.92969C5.62462 7.09545 5.69046 7.25442 5.80767 7.37163C5.92488 7.48884 6.08386 7.55469 6.24962 7.55469C6.41538 7.55469 6.57435 7.48884 6.69156 7.37163C6.80877 7.25442 6.87462 7.09545 6.87462 6.92969V5.67969H8.12462C8.29038 5.67969 8.44935 5.61384 8.56656 5.49663C8.68377 5.37942 8.74962 5.22045 8.74962 5.05469C8.74962 4.88893 8.68377 4.72996 8.56656 4.61275C8.44935 4.49554 8.29038 4.42969 8.12462 4.42969H6.87462V3.17969C6.87462 3.01393 6.80877 2.85496 6.69156 2.73775C6.57435 2.62054 6.41538 2.55469 6.24962 2.55469C6.08386 2.55469 5.92488 2.62054 5.80767 2.73775C5.69046 2.85496 5.62462 3.01393 5.62462 3.17969V4.42969H4.37462C4.20886 4.42969 4.04988 4.49554 3.93267 4.61275C3.81546 4.72996 3.74962 4.88893 3.74962 5.05469C3.74962 5.22045 3.81546 5.37942 3.93267 5.49663C4.04988 5.61384 4.20886 5.67969 4.37462 5.67969ZM14.3746 15.0547H13.7496V14.4297C13.7496 14.2639 13.6838 14.105 13.5666 13.9877C13.4493 13.8705 13.2904 13.8047 13.1246 13.8047C12.9589 13.8047 12.7999 13.8705 12.6827 13.9877C12.5655 14.105 12.4996 14.2639 12.4996 14.4297V15.0547H11.8746C11.7089 15.0547 11.5499 15.1205 11.4327 15.2377C11.3155 15.355 11.2496 15.5139 11.2496 15.6797C11.2496 15.8454 11.3155 16.0044 11.4327 16.1216C11.5499 16.2388 11.7089 16.3047 11.8746 16.3047H12.4996V16.9297C12.4996 17.0954 12.5655 17.2544 12.6827 17.3716C12.7999 17.4888 12.9589 17.5547 13.1246 17.5547C13.2904 17.5547 13.4493 17.4888 13.5666 17.3716C13.6838 17.2544 13.7496 17.0954 13.7496 16.9297V16.3047H14.3746C14.5404 16.3047 14.6993 16.2388 14.8166 16.1216C14.9338 16.0044 14.9996 15.8454 14.9996 15.6797C14.9996 15.5139 14.9338 15.355 14.8166 15.2377C14.6993 15.1205 14.5404 15.0547 14.3746 15.0547ZM17.1332 6.30469L6.24962 17.1883C6.01522 17.4225 5.6974 17.5541 5.36602 17.5541C5.03464 17.5541 4.71683 17.4225 4.48243 17.1883L2.86524 15.5727C2.74914 15.4566 2.65704 15.3188 2.5942 15.1671C2.53137 15.0154 2.49902 14.8528 2.49902 14.6887C2.49902 14.5245 2.53137 14.3619 2.5942 14.2103C2.65704 14.0586 2.74914 13.9208 2.86524 13.8047L13.7496 2.92109C13.8657 2.80499 14.0035 2.71289 14.1552 2.65005C14.3069 2.58722 14.4694 2.55488 14.6336 2.55488C14.7978 2.55488 14.9603 2.58722 15.112 2.65005C15.2637 2.71289 15.4015 2.80499 15.5176 2.92109L17.1332 4.53672C17.2493 4.6528 17.3414 4.79061 17.4042 4.94228C17.4671 5.09396 17.4994 5.25653 17.4994 5.4207C17.4994 5.58488 17.4671 5.74745 17.4042 5.89912C17.3414 6.0508 17.2493 6.18861 17.1332 6.30469ZM12.8652 8.80469L11.2496 7.18828L3.74962 14.6883L5.36524 16.3047L12.8652 8.80469ZM16.2496 5.42109L14.6332 3.80469L12.1332 6.30469L13.7496 7.92109L16.2496 5.42109Z" fill="#00412D"/>
</svg>
