<svg width="32" height="33" viewBox="0 0 32 33" fill="none" xmlns="http://www.w3.org/2000/svg">
<rect y="0.0546875" width="32" height="32" rx="16" fill="#087A5B"/>
<path d="M8.90246 15.4887C8.90246 15.4887 15.4128 12.7467 17.6706 11.7812C18.5362 11.395 21.4715 10.1591 21.4715 10.1591C21.4715 10.1591 22.8262 9.61844 22.7133 10.9315C22.6757 11.4722 22.3746 13.3646 22.0736 15.4115C21.622 18.308 21.1328 21.4749 21.1328 21.4749C21.1328 21.4749 21.0575 22.3632 20.4178 22.5177C19.7781 22.6721 18.7243 21.977 18.5362 21.8225C18.3856 21.7067 15.7138 19.9687 14.7354 19.1191C14.4719 18.8873 14.1709 18.4239 14.773 17.8832C16.1278 16.6087 17.7459 15.0253 18.7243 14.0212C19.1759 13.5577 19.6275 12.4763 17.7459 13.7894C15.0741 15.6818 12.4398 17.4584 12.4398 17.4584C12.4398 17.4584 11.8377 17.8446 10.7088 17.497C9.57979 17.1494 8.26268 16.686 8.26268 16.686C8.26268 16.686 7.35957 16.1067 8.90246 15.4887Z" fill="white"/>
</svg>
