<svg width="1148" height="21" viewBox="0 0 1148 21" fill="none" xmlns="http://www.w3.org/2000/svg">
<rect opacity="0.2" x="332.424" y="0.986328" width="482.878" height="19.0521" rx="4.17621" fill="#F8F5F0"/>
<path d="M316.759 6.82094L311.406 4.88577C311.243 4.82708 311.068 4.79688 310.892 4.79688C310.715 4.79688 310.54 4.82708 310.377 4.88577L305.024 6.82094C304.525 6.99995 304.199 7.42326 304.199 7.89254C304.199 12.6942 307.391 16.013 310.375 17.0919C310.704 17.2104 311.074 17.2104 311.403 17.0919C313.793 16.2283 317.582 13.2457 317.582 7.89254C317.582 7.42326 317.255 6.99995 316.759 6.82094ZM310.893 15.5921L310.89 6.37585L315.794 8.14895C315.702 11.8113 313.505 14.4649 310.893 15.5921Z" fill="#00412D"/>
<path d="M532.141 9.89033H531.612V8.7969C531.612 7.47705 530.889 6.70117 529.445 6.70117C528.001 6.70117 527.279 7.47705 527.279 8.7969V9.89033H526.641C526.342 9.89033 526.1 10.1846 526.1 10.4366V14.3634C526.1 14.6136 526.331 14.8824 526.615 14.9589L527.263 15.1352C527.607 15.2195 527.962 15.2664 528.32 15.2746H530.57C530.928 15.2664 531.283 15.2194 531.627 15.1348L532.275 14.9584C532.558 14.8824 532.791 14.6136 532.791 14.3634V10.4366C532.791 10.1846 532.44 9.89033 532.141 9.89033ZM530.529 9.89033H528.362V8.61421C528.362 7.95588 528.794 7.61236 529.445 7.61236C530.097 7.61236 530.529 7.95588 530.529 8.61421V9.89033Z" fill="#00412D"/>
<path d="M560.494 12.2812V7.54543H561.443V12.2812H560.494ZM560.419 6.5588V5.57217H561.518V6.5588H560.419ZM562.834 12.2812V8.6824C562.834 8.50074 562.825 8.31594 562.806 8.12801C562.793 7.93382 562.778 7.73962 562.759 7.54543H563.68L563.764 8.54146H563.652C563.783 8.19692 563.984 7.93069 564.253 7.74276C564.529 7.55483 564.857 7.46086 565.24 7.46086C565.628 7.46086 565.944 7.55483 566.189 7.74276C566.439 7.92442 566.611 8.20631 566.705 8.58844H566.555C566.68 8.2439 566.893 7.9714 567.194 7.77095C567.495 7.56422 567.842 7.46086 568.237 7.46086C568.763 7.46086 569.158 7.61434 569.421 7.92129C569.684 8.22824 569.816 8.70433 569.816 9.34955V12.2812H568.867V9.39653C568.867 8.98309 568.795 8.68553 568.65 8.50387C568.513 8.31594 568.287 8.22198 567.974 8.22198C567.611 8.22198 567.322 8.34726 567.109 8.59783C566.896 8.84841 566.79 9.18668 566.79 9.61265V12.2812H565.841V9.39653C565.841 8.98309 565.769 8.68553 565.625 8.50387C565.487 8.31594 565.261 8.22198 564.948 8.22198C564.585 8.22198 564.3 8.34726 564.093 8.59783C563.886 8.84841 563.783 9.18668 563.783 9.61265V12.2812H562.834ZM572.989 12.3658C572.569 12.3658 572.203 12.2687 571.889 12.0745C571.576 11.8803 571.332 11.5984 571.156 11.2288C570.987 10.8593 570.903 10.4207 570.903 9.91334C570.903 9.39967 570.987 8.96116 571.156 8.59783C571.332 8.2345 571.576 7.95574 571.889 7.76155C572.203 7.56109 572.569 7.46086 572.989 7.46086C573.402 7.46086 573.762 7.56422 574.069 7.77095C574.376 7.97767 574.58 8.25956 574.68 8.61663H574.577L574.671 7.54543H575.592C575.573 7.73962 575.554 7.93382 575.535 8.12801C575.523 8.31594 575.516 8.50074 575.516 8.6824V12.2812H574.567V11.2288H574.671C574.571 11.5796 574.364 11.8584 574.051 12.0651C573.744 12.2656 573.39 12.3658 572.989 12.3658ZM573.224 11.6235C573.631 11.6235 573.957 11.4794 574.201 11.1913C574.451 10.9031 574.577 10.4771 574.577 9.91334C574.577 9.34955 574.451 8.92671 574.201 8.64482C573.957 8.35666 573.631 8.21258 573.224 8.21258C572.81 8.21258 572.478 8.35666 572.228 8.64482C571.983 8.92671 571.861 9.34955 571.861 9.91334C571.861 10.4771 571.983 10.9031 572.228 11.1913C572.472 11.4794 572.804 11.6235 573.224 11.6235ZM576.882 12.2812V8.71999C576.882 8.52579 576.876 8.3316 576.864 8.13741C576.857 7.93695 576.845 7.73962 576.826 7.54543H577.747L577.85 8.76697H577.7C577.763 8.47255 577.869 8.22824 578.019 8.03405C578.17 7.83985 578.351 7.69577 578.564 7.60181C578.784 7.50784 579.012 7.46086 579.25 7.46086C579.351 7.46086 579.435 7.46713 579.504 7.47965C579.573 7.48592 579.642 7.49845 579.711 7.51724L579.701 8.36292C579.595 8.31907 579.501 8.29402 579.419 8.28775C579.344 8.27522 579.25 8.26896 579.138 8.26896C578.862 8.26896 578.627 8.3316 578.433 8.45689C578.239 8.57591 578.091 8.73878 577.991 8.9455C577.891 9.15223 577.841 9.37461 577.841 9.61265V12.2812H576.882ZM582.568 12.3658C581.804 12.3658 581.203 12.1497 580.764 11.7175C580.326 11.2852 580.107 10.687 580.107 9.92274C580.107 9.42786 580.2 8.99562 580.388 8.62602C580.583 8.25643 580.849 7.9714 581.187 7.77095C581.532 7.56422 581.929 7.46086 582.38 7.46086C582.825 7.46086 583.198 7.55483 583.499 7.74276C583.799 7.93069 584.028 8.19692 584.185 8.54146C584.341 8.87973 584.419 9.28064 584.419 9.7442V10.0449H580.849V9.4999H583.771L583.611 9.62205C583.611 9.15223 583.505 8.7889 583.292 8.53206C583.085 8.26896 582.785 8.13741 582.39 8.13741C581.951 8.13741 581.613 8.29088 581.375 8.59783C581.137 8.89852 581.018 9.3151 581.018 9.84756V9.94153C581.018 10.4991 581.153 10.9188 581.422 11.2007C581.698 11.4826 582.086 11.6235 582.587 11.6235C582.863 11.6235 583.12 11.5859 583.358 11.5107C583.602 11.4293 583.834 11.2978 584.053 11.1161L584.363 11.7644C584.144 11.9586 583.878 12.109 583.564 12.2155C583.251 12.3157 582.919 12.3658 582.568 12.3658ZM587.698 12.3658C586.934 12.3658 586.332 12.1497 585.894 11.7175C585.455 11.2852 585.236 10.687 585.236 9.92274C585.236 9.42786 585.33 8.99562 585.518 8.62602C585.712 8.25643 585.978 7.9714 586.317 7.77095C586.661 7.56422 587.059 7.46086 587.51 7.46086C587.955 7.46086 588.327 7.55483 588.628 7.74276C588.929 7.93069 589.157 8.19692 589.314 8.54146C589.471 8.87973 589.549 9.28064 589.549 9.7442V10.0449H585.978V9.4999H588.901L588.741 9.62205C588.741 9.15223 588.634 8.7889 588.421 8.53206C588.215 8.26896 587.914 8.13741 587.519 8.13741C587.081 8.13741 586.743 8.29088 586.505 8.59783C586.267 8.89852 586.147 9.3151 586.147 9.84756V9.94153C586.147 10.4991 586.282 10.9188 586.552 11.2007C586.827 11.4826 587.216 11.6235 587.717 11.6235C587.992 11.6235 588.249 11.5859 588.487 11.5107C588.732 11.4293 588.963 11.2978 589.183 11.1161L589.493 11.7644C589.273 11.9586 589.007 12.109 588.694 12.2155C588.381 12.3157 588.049 12.3658 587.698 12.3658ZM590.497 12.2812V11.1631H591.615V12.2812H590.497ZM594.752 12.3658C594.276 12.3658 593.859 12.2687 593.502 12.0745C593.151 11.8741 592.879 11.589 592.685 11.2194C592.497 10.8436 592.403 10.3988 592.403 9.88515C592.403 9.37774 592.5 8.94237 592.694 8.57904C592.888 8.21571 593.161 7.94008 593.511 7.75215C593.862 7.55796 594.276 7.46086 594.752 7.46086C595.059 7.46086 595.356 7.51411 595.644 7.6206C595.933 7.72083 596.171 7.86491 596.359 8.05284L596.049 8.71999C595.873 8.55085 595.676 8.42557 595.457 8.34413C595.237 8.25643 595.024 8.21258 594.818 8.21258C594.367 8.21258 594.013 8.35666 593.756 8.64482C593.499 8.93297 593.371 9.34955 593.371 9.89455C593.371 10.4458 593.499 10.8686 593.756 11.1631C594.013 11.4575 594.367 11.6047 594.818 11.6047C595.018 11.6047 595.228 11.5671 595.447 11.4919C595.666 11.4105 595.867 11.2821 596.049 11.1067L596.359 11.7738C596.164 11.9618 595.92 12.109 595.626 12.2155C595.338 12.3157 595.046 12.3658 594.752 12.3658ZM599.302 12.3658C598.832 12.3658 598.425 12.2687 598.081 12.0745C597.736 11.8741 597.47 11.5922 597.282 11.2288C597.094 10.8593 597 10.4207 597 9.91334C597 9.40593 597.094 8.97056 597.282 8.60723C597.47 8.23764 597.736 7.95574 598.081 7.76155C598.425 7.56109 598.832 7.46086 599.302 7.46086C599.772 7.46086 600.179 7.56109 600.524 7.76155C600.874 7.95574 601.144 8.23764 601.332 8.60723C601.526 8.97056 601.623 9.40593 601.623 9.91334C601.623 10.4207 601.526 10.8593 601.332 11.2288C601.144 11.5922 600.874 11.8741 600.524 12.0745C600.179 12.2687 599.772 12.3658 599.302 12.3658ZM599.302 11.6235C599.716 11.6235 600.044 11.4794 600.289 11.1913C600.533 10.9031 600.655 10.4771 600.655 9.91334C600.655 9.34955 600.533 8.92671 600.289 8.64482C600.044 8.35666 599.716 8.21258 599.302 8.21258C598.895 8.21258 598.569 8.35666 598.325 8.64482C598.081 8.92671 597.958 9.34955 597.958 9.91334C597.958 10.4771 598.077 10.9031 598.315 11.1913C598.56 11.4794 598.889 11.6235 599.302 11.6235ZM602.732 12.2812V8.6824C602.732 8.50074 602.723 8.31594 602.704 8.12801C602.692 7.93382 602.676 7.73962 602.657 7.54543H603.578L603.663 8.54146H603.55C603.681 8.19692 603.882 7.93069 604.151 7.74276C604.427 7.55483 604.756 7.46086 605.138 7.46086C605.526 7.46086 605.843 7.55483 606.087 7.74276C606.337 7.92442 606.51 8.20631 606.604 8.58844H606.453C606.579 8.2439 606.792 7.9714 607.092 7.77095C607.393 7.56422 607.741 7.46086 608.135 7.46086C608.661 7.46086 609.056 7.61434 609.319 7.92129C609.582 8.22824 609.714 8.70433 609.714 9.34955V12.2812H608.765V9.39653C608.765 8.98309 608.693 8.68553 608.549 8.50387C608.411 8.31594 608.185 8.22198 607.872 8.22198C607.509 8.22198 607.221 8.34726 607.008 8.59783C606.795 8.84841 606.688 9.18668 606.688 9.61265V12.2812H605.739V9.39653C605.739 8.98309 605.667 8.68553 605.523 8.50387C605.385 8.31594 605.16 8.22198 604.847 8.22198C604.483 8.22198 604.198 8.34726 603.991 8.59783C603.785 8.84841 603.681 9.18668 603.681 9.61265V12.2812H602.732Z" fill="#00412D"/>
<ellipse cx="5.32795" cy="10.5116" rx="4.46076" ry="3.81042" fill="#00412D"/>
<ellipse opacity="0.6" cx="19.826" cy="10.5116" rx="4.46076" ry="3.81042" fill="#00412D"/>
<ellipse opacity="0.3" cx="34.3201" cy="10.5116" rx="4.46076" ry="3.81042" fill="#00412D"/>
<path d="M67.7793 7.6543H68.8945" stroke="#00412D" stroke-width="1.04405" stroke-linecap="square" stroke-linejoin="round"/>
<path d="M67.7793 9.55859H68.8945" stroke="#00412D" stroke-width="1.04405" stroke-linecap="square" stroke-linejoin="round"/>
<rect x="65.0248" y="5.22797" width="16.6567" height="11.5227" rx="1.56608" stroke="#00412D" stroke-width="1.04405"/>
<path d="M71.125 5.27344V16.7047" stroke="#00412D" stroke-width="1.04405" stroke-linecap="square" stroke-linejoin="round"/>
<path d="M805.205 6.60532C804.481 6.60254 803.765 6.73878 803.111 7.00398C802.456 7.26919 801.88 7.65658 801.424 8.13754C800.005 9.62201 799.987 11.8267 801.39 13.3258C803.239 15.31 806.612 15.4349 808.646 13.6969C809.296 13.142 809.748 12.4411 809.95 11.6756C810.151 10.91 810.095 10.1113 809.786 9.37215C809.636 9.00838 809.098 8.90182 808.78 9.17373C808.621 9.30968 808.556 9.51177 808.629 9.69182C808.917 10.3641 808.924 11.1004 808.651 11.777C808.378 12.4536 807.84 13.029 807.128 13.4066C805.962 14.0423 804.414 14.035 803.257 13.3919C802.794 13.142 802.403 12.8065 802.113 12.4101C801.823 12.0137 801.64 11.5667 801.58 11.1021C801.519 10.6374 801.581 10.1671 801.762 9.72582C801.943 9.28455 802.238 8.88364 802.624 8.55275C803.338 7.9428 804.272 7.65252 805.205 7.6562L805.205 8.76587C805.205 9.22884 805.859 9.46401 806.242 9.13698L807.786 7.81787C808.023 7.61578 808.023 7.28508 807.786 7.08299L806.242 5.76388C805.859 5.43685 805.201 5.66834 805.201 6.13132L805.205 6.60532Z" fill="#00412D"/>
<path fill-rule="evenodd" clip-rule="evenodd" d="M1131.79 6.61637C1131.79 5.93461 1132.42 5.36262 1133.28 5.36139C1134.15 5.36008 1134.71 5.36262 1134.71 5.36262C1134.71 5.36262 1134.67 4.63403 1134.67 4.05459C1134.67 3.47499 1135.27 2.89498 1136.13 2.89498C1137 2.89498 1145.03 2.87369 1145.84 2.92527C1146.66 2.97684 1147.3 3.41424 1147.3 4.11779C1147.3 4.82133 1147.3 11.7973 1147.3 12.4434C1147.3 13.0895 1146.62 13.6765 1145.78 13.6846C1144.94 13.6928 1144.37 13.6765 1144.37 13.6765C1144.37 13.6765 1144.4 14.4926 1144.4 14.994C1144.4 15.4952 1143.72 16.2233 1142.92 16.2233C1142.11 16.2233 1133.99 16.2676 1133.22 16.2676C1132.44 16.2676 1131.73 15.6851 1131.76 14.9589C1131.79 14.2326 1131.79 7.29798 1131.79 6.61637H1131.79ZM1136.21 4.2843L1136.2 12.3204C1136.2 12.4102 1136.29 12.4834 1136.39 12.4829L1145.55 12.4411C1145.6 12.4409 1145.65 12.4235 1145.68 12.3926C1145.72 12.3618 1145.74 12.3201 1145.74 12.2766L1145.73 4.31254C1145.73 4.26894 1145.71 4.22715 1145.68 4.19635C1145.64 4.16554 1145.59 4.14824 1145.54 4.14824L1136.4 4.12155C1136.37 4.12134 1136.35 4.12539 1136.33 4.13347C1136.3 4.14155 1136.28 4.1535 1136.26 4.16863C1136.24 4.18376 1136.23 4.20177 1136.22 4.22163C1136.21 4.24148 1136.21 4.26278 1136.21 4.2843ZM1133.27 6.94956L1133.36 14.8287C1133.36 14.8721 1133.38 14.9135 1133.42 14.9439C1133.46 14.9743 1133.5 14.9912 1133.55 14.991L1142.58 14.9324C1142.63 14.9322 1142.68 14.9234 1142.72 14.9067C1142.77 14.89 1142.81 14.8656 1142.85 14.835C1142.88 14.8043 1142.91 14.7681 1142.93 14.7282C1142.95 14.6884 1142.95 14.6458 1142.95 14.6028L1142.94 13.6911C1142.94 13.6911 1136.92 13.7384 1136.13 13.7384C1135.35 13.7384 1134.65 13.1048 1134.65 12.3918C1134.65 11.6787 1134.71 6.76766 1134.71 6.76766C1134.71 6.67761 1134.62 6.60475 1134.52 6.60598L1133.65 6.61662C1133.55 6.61781 1133.45 6.65352 1133.38 6.71593C1133.31 6.77834 1133.27 6.86235 1133.27 6.94956Z" fill="#00412D"/>
<path d="M1105.74 8.84493V3.84375H1104.07V8.84493H1098.22V10.2738H1104.07V15.275H1105.74V10.2738H1111.6V8.84493H1105.74Z" fill="#00412D"/>
<path d="M1071.45 2.89062L1068.48 5.43091H1070.71V11.1465H1072.19V5.43091H1074.42L1071.45 2.89062ZM1075.91 16.8622H1066.99C1066.59 16.8622 1066.22 16.7284 1065.94 16.4902C1065.66 16.252 1065.5 15.9289 1065.5 15.592V7.97119C1065.5 7.63433 1065.66 7.31126 1065.94 7.07306C1066.22 6.83486 1066.59 6.70105 1066.99 6.70105H1069.22V7.97119H1066.99V15.592H1075.91V7.97119H1073.68V6.70105H1075.91C1076.3 6.70105 1076.68 6.83486 1076.96 7.07306C1077.24 7.31126 1077.4 7.63433 1077.4 7.97119V15.592C1077.4 15.9289 1077.24 16.252 1076.96 16.4902C1076.68 16.7284 1076.3 16.8622 1075.91 16.8622Z" fill="#00412D"/>
<path d="M106.051 5.59375L100.475 10.3568L105.493 14.6435" stroke="#00412D" stroke-width="1.56608" stroke-linecap="round" stroke-linejoin="round"/>
<path opacity="0.5" d="M126.68 14.6445L132.256 9.8815L127.237 5.59478" stroke="#00412D" stroke-width="1.56608" stroke-linecap="round" stroke-linejoin="round"/>
</svg>
