<svg width="1148" height="20" viewBox="0 0 1148 20" fill="none" xmlns="http://www.w3.org/2000/svg">
<rect opacity="0.2" x="332.422" y="0.101562" width="482.878" height="19.0521" fill="#F8F5F0"/>
<path d="M316.747 5.94204L311.394 4.00687C311.231 3.94818 311.057 3.91797 310.88 3.91797C310.704 3.91797 310.529 3.94818 310.366 4.00687L305.013 5.94204C304.514 6.12104 304.188 6.54436 304.188 7.01364C304.188 11.8153 307.38 15.1341 310.363 16.2129C310.692 16.3315 311.063 16.3315 311.392 16.2129C313.781 15.3494 317.57 12.3668 317.57 7.01364C317.57 6.54436 317.244 6.12104 316.747 5.94204ZM310.881 14.7132L310.879 5.49695L315.783 7.27005C315.691 10.9324 313.494 13.586 310.881 14.7132Z" fill="#00412D"/>
<path d="M532.143 9.00556H531.614V7.91214C531.614 6.59228 530.891 5.81641 529.447 5.81641C528.003 5.81641 527.28 6.59228 527.28 7.91214V9.00556H526.643C526.344 9.00556 526.102 9.29988 526.102 9.55182V13.4787C526.102 13.7288 526.333 13.9976 526.617 14.0741L527.265 14.2504C527.609 14.3348 527.964 14.3816 528.322 14.3899H530.572C530.93 14.3817 531.285 14.3347 531.629 14.25L532.277 14.0737C532.56 13.9976 532.793 13.7288 532.793 13.4787V9.55182C532.793 9.29988 532.442 9.00556 532.143 9.00556ZM530.53 9.00556H528.364V7.72945C528.364 7.07111 528.796 6.72759 529.447 6.72759C530.099 6.72759 530.53 7.07111 530.53 7.72945V9.00556Z" fill="#00412D"/>
<path d="M563.088 11.3984L561.059 6.66262H562.073L563.671 10.6185H563.398L565.024 6.66262H565.992L563.953 11.3984H563.088ZM566.744 11.3984V6.66262H567.694V11.3984H566.744ZM566.669 5.67599V4.68936H567.769V5.67599H566.669ZM570.475 11.3984L568.445 6.66262H569.46L571.058 10.6185H570.785L572.411 6.66262H573.379L571.34 11.3984H570.475ZM574.131 11.3984V6.66262H575.08V11.3984H574.131ZM574.056 5.67599V4.68936H575.156V5.67599H574.056ZM578.661 11.483C577.896 11.483 577.295 11.2669 576.857 10.8346C576.418 10.4024 576.199 9.80417 576.199 9.03992C576.199 8.54504 576.293 8.11281 576.481 7.74321C576.675 7.37362 576.941 7.08859 577.279 6.88813C577.624 6.68141 578.022 6.57805 578.473 6.57805C578.918 6.57805 579.29 6.67201 579.591 6.85994C579.892 7.04787 580.12 7.31411 580.277 7.65864C580.433 7.99692 580.512 8.39783 580.512 8.86139V9.16208H576.941V8.61708H579.863L579.704 8.73924C579.704 8.26941 579.597 7.90608 579.384 7.64925C579.177 7.38615 578.877 7.25459 578.482 7.25459C578.044 7.25459 577.705 7.40807 577.467 7.71502C577.229 8.01571 577.11 8.43229 577.11 8.96475V9.05872C577.11 9.61624 577.245 10.0359 577.514 10.3178C577.79 10.5997 578.178 10.7407 578.679 10.7407C578.955 10.7407 579.212 10.7031 579.45 10.6279C579.694 10.5465 579.926 10.4149 580.145 10.2333L580.455 10.8816C580.236 11.0758 579.97 11.2262 579.657 11.3327C579.343 11.4329 579.011 11.483 578.661 11.483ZM581.601 11.3984V7.79959C581.601 7.61792 581.591 7.43313 581.573 7.2452C581.56 7.051 581.544 6.85681 581.526 6.66262H582.447L582.531 7.65864H582.418C582.562 7.30784 582.785 7.04161 583.085 6.85994C583.386 6.67201 583.734 6.57805 584.128 6.57805C584.686 6.57805 585.106 6.73152 585.388 7.03848C585.676 7.34543 585.82 7.82152 585.82 8.46674V11.3984H584.871V8.52312C584.871 8.10341 584.786 7.80272 584.617 7.62106C584.454 7.43313 584.204 7.33916 583.865 7.33916C583.464 7.33916 583.145 7.46445 582.907 7.71502C582.669 7.95933 582.55 8.29134 582.55 8.71105V11.3984H581.601ZM588.984 11.483C588.565 11.483 588.198 11.3859 587.885 11.1917C587.572 10.9975 587.327 10.7156 587.152 10.346C586.983 9.97644 586.898 9.53794 586.898 9.03053C586.898 8.51685 586.983 8.07835 587.152 7.71502C587.327 7.35169 587.572 7.07293 587.885 6.87874C588.198 6.67828 588.565 6.57805 588.984 6.57805C589.398 6.57805 589.758 6.68141 590.065 6.88813C590.372 7.09485 590.575 7.37675 590.676 7.73381H590.572L590.666 6.66262H591.587C591.568 6.85681 591.55 7.051 591.531 7.2452C591.518 7.43313 591.512 7.61792 591.512 7.79959V11.3984H590.563V10.346H590.666C590.566 10.6968 590.359 10.9756 590.046 11.1823C589.739 11.3828 589.385 11.483 588.984 11.483ZM589.219 10.7407C589.626 10.7407 589.952 10.5966 590.196 10.3084C590.447 10.0203 590.572 9.59432 590.572 9.03053C590.572 8.46674 590.447 8.0439 590.196 7.762C589.952 7.47385 589.626 7.32977 589.219 7.32977C588.806 7.32977 588.474 7.47385 588.223 7.762C587.979 8.0439 587.857 8.46674 587.857 9.03053C587.857 9.59432 587.979 10.0203 588.223 10.3084C588.468 10.5966 588.8 10.7407 589.219 10.7407ZM592.897 11.3984V6.66262H593.846V11.3984H592.897ZM592.822 5.67599V4.68936H593.921V5.67599H592.822ZM595.218 11.3984V7.83718C595.218 7.64298 595.212 7.44879 595.199 7.25459C595.193 7.05414 595.18 6.85681 595.162 6.66262H596.082L596.186 7.88416H596.035C596.098 7.58974 596.205 7.34543 596.355 7.15123C596.505 6.95704 596.687 6.81296 596.9 6.719C597.119 6.62503 597.348 6.57805 597.586 6.57805C597.686 6.57805 597.771 6.58431 597.84 6.59684C597.908 6.60311 597.977 6.61563 598.046 6.63443L598.037 7.48011C597.93 7.43626 597.836 7.4112 597.755 7.40494C597.68 7.39241 597.586 7.38615 597.473 7.38615C597.197 7.38615 596.963 7.44879 596.768 7.57407C596.574 7.6931 596.427 7.85597 596.327 8.06269C596.226 8.26941 596.176 8.4918 596.176 8.72984V11.3984H595.218ZM598.436 11.3984V10.2803H599.554V11.3984H598.436ZM600.788 11.3984V7.83718C600.788 7.64298 600.782 7.44879 600.769 7.25459C600.763 7.05414 600.75 6.85681 600.732 6.66262H601.652L601.756 7.88416H601.605C601.668 7.58974 601.775 7.34543 601.925 7.15123C602.075 6.95704 602.257 6.81296 602.47 6.719C602.689 6.62503 602.918 6.57805 603.156 6.57805C603.256 6.57805 603.341 6.58431 603.41 6.59684C603.478 6.60311 603.547 6.61563 603.616 6.63443L603.607 7.48011C603.5 7.43626 603.406 7.4112 603.325 7.40494C603.25 7.39241 603.156 7.38615 603.043 7.38615C602.767 7.38615 602.533 7.44879 602.338 7.57407C602.144 7.6931 601.997 7.85597 601.897 8.06269C601.796 8.26941 601.746 8.4918 601.746 8.72984V11.3984H600.788ZM606.031 11.483C605.461 11.483 605.032 11.3295 604.743 11.0226C604.461 10.7094 604.321 10.2301 604.321 9.58492V6.66262H605.27V9.56613C605.27 9.96078 605.351 10.2521 605.514 10.44C605.677 10.6279 605.924 10.7219 606.256 10.7219C606.632 10.7219 606.936 10.5966 607.168 10.346C607.399 10.0955 607.515 9.76345 607.515 9.35001V6.66262H608.464V11.3984H607.544V10.3836H607.666C607.534 10.7344 607.324 11.0069 607.036 11.2011C606.748 11.389 606.413 11.483 606.031 11.483Z" fill="#00412D"/>
<ellipse cx="5.32014" cy="9.62683" rx="4.46076" ry="3.81042" fill="#00412D"/>
<ellipse opacity="0.6" cx="19.8201" cy="9.62683" rx="4.46076" ry="3.81042" fill="#00412D"/>
<ellipse opacity="0.3" cx="34.3201" cy="9.62683" rx="4.46076" ry="3.81042" fill="#00412D"/>
<path d="M67.7734 6.76953H68.8886" stroke="#00412D" stroke-width="1.04405" stroke-linecap="square" stroke-linejoin="round"/>
<path d="M67.7734 8.66797H68.8886" stroke="#00412D" stroke-width="1.04405" stroke-linecap="square" stroke-linejoin="round"/>
<rect x="65.0248" y="4.34907" width="16.6567" height="11.5227" stroke="#00412D" stroke-width="1.04405"/>
<path d="M71.1406 4.39453V15.8258" stroke="#00412D" stroke-width="1.04405" stroke-linecap="square" stroke-linejoin="round"/>
<path d="M805.205 5.7225C804.481 5.71973 803.765 5.85597 803.111 6.12117C802.456 6.38638 801.88 6.77376 801.424 7.25473C800.005 8.73919 799.987 10.9438 801.39 12.443C803.239 14.4272 806.612 14.5521 808.646 12.8141C809.296 12.2592 809.748 11.5583 809.95 10.7928C810.151 10.0272 810.095 9.22847 809.786 8.48933C809.636 8.12557 809.098 8.01901 808.78 8.29092C808.621 8.42687 808.556 8.62896 808.629 8.80901C808.917 9.48128 808.924 10.2176 808.651 10.8942C808.378 11.5708 807.84 12.1462 807.128 12.5238C805.962 13.1595 804.414 13.1522 803.257 12.5091C802.794 12.2592 802.403 11.9237 802.113 11.5273C801.823 11.1309 801.64 10.6839 801.58 10.2193C801.519 9.75464 801.581 9.28429 801.762 8.84301C801.943 8.40174 802.238 8.00083 802.624 7.66994C803.338 7.05999 804.272 6.76971 805.205 6.77339L805.205 7.88306C805.205 8.34603 805.859 8.58119 806.242 8.25417L807.786 6.93506C808.023 6.73297 808.023 6.40227 807.786 6.20018L806.242 4.88106C805.859 4.55404 805.201 4.78553 805.201 5.2485L805.205 5.7225Z" fill="#00412D"/>
<path fill-rule="evenodd" clip-rule="evenodd" d="M1131.81 5.73747C1131.81 5.0557 1132.43 4.48371 1133.3 4.48248C1134.16 4.48117 1134.72 4.48371 1134.72 4.48371C1134.72 4.48371 1134.69 3.75512 1134.69 3.17568C1134.69 2.59608 1135.28 2.01607 1136.15 2.01607C1137.02 2.01607 1145.04 1.99479 1145.86 2.04636C1146.67 2.09794 1147.32 2.53534 1147.32 3.23888C1147.32 3.94242 1147.31 10.9183 1147.31 11.5645C1147.31 12.2106 1146.64 12.7976 1145.79 12.8057C1144.95 12.8139 1144.38 12.7975 1144.38 12.7975C1144.38 12.7975 1144.41 13.6137 1144.41 14.1151C1144.41 14.6163 1143.73 15.3444 1142.93 15.3444C1142.13 15.3444 1134.01 15.3887 1133.23 15.3887C1132.46 15.3887 1131.74 14.8062 1131.77 14.08C1131.81 13.3537 1131.81 6.41907 1131.81 5.73747H1131.81ZM1136.22 3.40539L1136.22 11.4415C1136.22 11.5313 1136.3 11.6045 1136.41 11.604L1145.56 11.5622C1145.62 11.562 1145.66 11.5446 1145.7 11.5137C1145.74 11.4829 1145.76 11.4412 1145.76 11.3977L1145.75 3.43364C1145.75 3.39004 1145.73 3.34825 1145.69 3.31744C1145.66 3.28664 1145.61 3.26933 1145.56 3.26933L1136.41 3.24265C1136.39 3.24243 1136.36 3.24648 1136.34 3.25456C1136.32 3.26264 1136.3 3.27459 1136.28 3.28972C1136.26 3.30485 1136.25 3.32287 1136.24 3.34272C1136.23 3.36257 1136.22 3.38388 1136.22 3.40539ZM1133.29 6.07066L1133.38 13.9498C1133.38 13.9932 1133.4 14.0346 1133.43 14.065C1133.47 14.0954 1133.52 14.1123 1133.57 14.112L1142.59 14.0535C1142.64 14.0533 1142.69 14.0445 1142.74 14.0278C1142.78 14.0111 1142.83 13.9867 1142.86 13.9561C1142.9 13.9254 1142.92 13.8892 1142.94 13.8493C1142.96 13.8095 1142.97 13.7669 1142.97 13.7239L1142.96 12.8122C1142.96 12.8122 1136.93 12.8595 1136.15 12.8595C1135.36 12.8595 1134.67 12.2259 1134.67 11.5128C1134.67 10.7998 1134.72 5.88875 1134.72 5.88875C1134.72 5.7987 1134.64 5.72584 1134.53 5.72707L1133.67 5.73771C1133.57 5.7389 1133.47 5.77461 1133.4 5.83702C1133.33 5.89943 1133.29 5.98345 1133.29 6.07066Z" fill="#00412D"/>
<path d="M1105.75 7.96602V2.96484H1104.07V7.96602H1098.22V9.39493H1104.07V14.3961H1105.75V9.39493H1111.6V7.96602H1105.75Z" fill="#00412D"/>
<path d="M1071.45 2.01172L1068.47 4.552H1070.7V10.2676H1072.19V4.552H1074.42L1071.45 2.01172ZM1075.91 15.9833H1066.99C1066.59 15.9833 1066.21 15.8494 1065.94 15.6112C1065.66 15.3731 1065.5 15.05 1065.5 14.7131V7.09228C1065.5 6.75542 1065.66 6.43235 1065.94 6.19416C1066.21 5.95596 1066.59 5.82214 1066.99 5.82214H1069.22V7.09228H1066.99V14.7131H1075.91V7.09228H1073.68V5.82214H1075.91C1076.3 5.82214 1076.68 5.95596 1076.96 6.19416C1077.24 6.43235 1077.4 6.75542 1077.4 7.09228V14.7131C1077.4 15.05 1077.24 15.3731 1076.96 15.6112C1076.68 15.8494 1076.3 15.9833 1075.91 15.9833Z" fill="#00412D"/>
<path d="M106.053 4.71094L100.477 9.47396L105.495 13.7607" stroke="#00412D" stroke-width="1.56608" stroke-linecap="round" stroke-linejoin="round"/>
<path opacity="0.5" d="M126.674 13.7617L132.25 8.99869L127.232 4.71197" stroke="#00412D" stroke-width="1.56608" stroke-linecap="round" stroke-linejoin="round"/>
</svg>
