<svg width="32" height="33" viewBox="0 0 32 33" fill="none" xmlns="http://www.w3.org/2000/svg">
<rect y="0.0546875" width="32" height="32" rx="16" fill="#087A5B"/>
<path d="M8 23.4634L9.14796 19.195C8.22216 17.5323 7.92802 15.592 8.31953 13.7302C8.71103 11.8684 9.76192 10.21 11.2793 9.0593C12.7968 7.90861 14.6789 7.34282 16.5805 7.46575C18.4821 7.58868 20.2754 8.39208 21.6315 9.72853C22.9876 11.065 23.8155 12.8448 23.9632 14.7415C24.111 16.6381 23.5686 18.5244 22.4358 20.054C21.3029 21.5837 19.6555 22.6542 17.7958 23.0692C15.9362 23.4841 13.989 23.2155 12.3116 22.3129L8 23.4634ZM12.5195 20.7156L12.7862 20.8735C14.0011 21.5925 15.4202 21.89 16.8222 21.7197C18.2242 21.5494 19.5304 20.9209 20.5372 19.9321C21.544 18.9433 22.195 17.6498 22.3886 16.2531C22.5821 14.8564 22.3075 13.4351 21.6075 12.2105C20.9074 10.9859 19.8212 10.0269 18.5182 9.48292C17.2152 8.93896 15.7686 8.84058 14.4038 9.20313C13.0389 9.56568 11.8325 10.3688 10.9726 11.4873C10.1127 12.6058 9.64754 13.9769 9.64963 15.3869C9.64849 16.556 9.97236 17.7025 10.5852 18.6987L10.7524 18.974L10.1106 21.3563L12.5195 20.7156Z" fill="white"/>
<path fill-rule="evenodd" clip-rule="evenodd" d="M18.9913 16.481C18.835 16.3551 18.652 16.2665 18.4562 16.222C18.2604 16.1774 18.057 16.178 17.8614 16.2238C17.5677 16.3456 17.3778 16.8059 17.188 17.036C17.148 17.0911 17.0892 17.1298 17.0226 17.1448C16.956 17.1597 16.8863 17.1499 16.8265 17.1172C15.751 16.6967 14.8495 15.9255 14.2684 14.9289C14.2188 14.8667 14.1954 14.7877 14.203 14.7086C14.2106 14.6295 14.2486 14.5564 14.3091 14.5047C14.5208 14.2955 14.6762 14.0363 14.761 13.7512C14.7799 13.4367 14.7077 13.1235 14.5531 12.8488C14.4336 12.4637 14.2062 12.1208 13.8978 11.8607C13.7387 11.7892 13.5623 11.7653 13.3899 11.7917C13.2175 11.8181 13.0564 11.8938 12.9261 12.0096C12.6999 12.2044 12.5203 12.4474 12.4006 12.7207C12.281 12.994 12.2242 13.2907 12.2346 13.5888C12.2353 13.7562 12.2566 13.9229 12.2979 14.0851C12.4028 14.4749 12.5642 14.8473 12.7769 15.1906C12.9304 15.4535 13.0979 15.708 13.2786 15.9531C13.866 16.758 14.6042 17.4415 15.4525 17.9655C15.8782 18.2317 16.3331 18.4482 16.8084 18.6107C17.3021 18.8341 17.8471 18.9199 18.3857 18.8589C18.6926 18.8125 18.9833 18.6915 19.2323 18.5066C19.4814 18.3217 19.6811 18.0786 19.8139 17.7985C19.8919 17.6293 19.9156 17.4402 19.8817 17.2571C19.8003 16.8826 19.2986 16.6615 18.9913 16.481Z" fill="white"/>
</svg>
